<svg version="1.1" xmlns="http://www.w3.org/2000/svg" viewBox="0 0 906.75 696" width="906.75" height="696" filter="invert(93%) hue-rotate(180deg)">
  <!-- svg-source:excalidraw -->
  
  <defs>
    <style class="style-fonts">
      @font-face {
        font-family: "Virgil";
        src: url("https://excalidraw.com/Virgil.woff2");
      }
      @font-face {
        font-family: "Cascadia";
        src: url("https://excalidraw.com/Cascadia.woff2");
      }
      @font-face {
        font-family: "Assistant";
        src: url("https://excalidraw.com/Assistant-Regular.woff2");
      }
    </style>
    
  </defs>
  <rect x="0" y="0" width="906.75" height="696" fill="#ffffff"></rect><g stroke-linecap="round" transform="translate(385.5 10) rotate(0 44.5 42.5)"><path d="M41.03 -0.6 C48.77 -1.67, 59.31 1.37, 66.28 5.2 C73.26 9.03, 79.24 15.71, 82.89 22.39 C86.54 29.07, 88.57 37.77, 88.18 45.3 C87.79 52.84, 85.27 61.36, 80.55 67.62 C75.83 73.88, 67.55 80, 59.87 82.85 C52.2 85.71, 42.29 86.42, 34.5 84.75 C26.72 83.09, 18.86 78.52, 13.15 72.88 C7.43 67.24, 1.83 58.45, 0.22 50.91 C-1.4 43.38, 0.73 34.64, 3.47 27.65 C6.21 20.67, 10.07 13.67, 16.68 9 C23.28 4.33, 38.56 0.91, 43.12 -0.36 C47.67 -1.64, 44.08 0.46, 44.01 1.36 M64.6 4.02 C71.58 7.05, 80.4 14.86, 84.41 21.74 C88.42 28.62, 89.55 37.69, 88.68 45.29 C87.8 52.88, 83.76 61.12, 79.15 67.32 C74.55 73.53, 68.18 79.81, 61.03 82.52 C53.87 85.24, 44.14 85.43, 36.23 83.63 C28.32 81.83, 19.54 77.29, 13.59 71.71 C7.64 66.13, 2.12 57.73, 0.52 50.17 C-1.09 42.61, 1.15 33.17, 3.96 26.36 C6.77 19.55, 11.02 13.52, 17.38 9.31 C23.74 5.11, 34.17 2.05, 42.13 1.14 C50.09 0.24, 61.44 3.19, 65.14 3.89 C68.84 4.59, 64.38 4.54, 64.33 5.34" stroke="#1e1e1e" stroke-width="1" fill="none"></path></g><g transform="translate(406.59624823719867 28.44796179957173) rotate(0 23.4375 24)"><text x="23.4375" y="0" font-family="Cascadia, Segoe UI Emoji" font-size="20px" fill="#1e1e1e" text-anchor="middle" style="white-space: pre;" direction="ltr" dominant-baseline="text-before-edge">A</text><text x="23.4375" y="24" font-family="Cascadia, Segoe UI Emoji" font-size="20px" fill="#1e1e1e" text-anchor="middle" style="white-space: pre;" direction="ltr" dominant-baseline="text-before-edge">100$</text></g><g stroke-linecap="round" transform="translate(796.25 210.5) rotate(0 44.5 44.5)"><path d="M35.66 1.16 C42.88 -0.87, 52.15 0.5, 59.43 3.27 C66.71 6.05, 74.39 11.5, 79.34 17.8 C84.29 24.11, 88.5 33.01, 89.14 41.1 C89.77 49.2, 87.16 59.2, 83.15 66.38 C79.15 73.56, 72.06 80.41, 65.09 84.18 C58.12 87.96, 49.33 89.84, 41.33 89.03 C33.32 88.21, 23.33 84.15, 17.04 79.29 C10.75 74.43, 6.43 67.18, 3.6 59.88 C0.77 52.58, -1.59 43.36, 0.07 35.49 C1.73 27.63, 7.22 18.44, 13.57 12.69 C19.91 6.94, 33.51 2.79, 38.15 0.97 C42.78 -0.86, 41.12 0.99, 41.39 1.74 M33.1 1.32 C40.43 -1.22, 49.74 -0.63, 57.12 1.64 C64.49 3.91, 71.95 8.77, 77.36 14.94 C82.77 21.11, 88.12 30.68, 89.57 38.67 C91.02 46.66, 89.49 55.76, 86.04 62.86 C82.59 69.96, 75.92 77.13, 68.86 81.26 C61.81 85.39, 51.62 87.76, 43.7 87.63 C35.78 87.5, 28.05 84.5, 21.34 80.48 C14.63 76.47, 6.78 70.48, 3.44 63.55 C0.1 56.62, 0.14 47.19, 1.3 38.9 C2.45 30.61, 5.39 20.12, 10.38 13.82 C15.36 7.52, 27.3 3.03, 31.18 1.11 C35.07 -0.8, 33.39 1.65, 33.68 2.33" stroke="#1e1e1e" stroke-width="1" fill="none"></path></g><g transform="translate(834.9243732371986 243.03374823719864) rotate(0 5.859375 12)"><text x="5.859375" y="0" font-family="Cascadia, Segoe UI Emoji" font-size="20px" fill="#1e1e1e" text-anchor="middle" style="white-space: pre;" direction="ltr" dominant-baseline="text-before-edge">B</text></g><g stroke-linecap="round" transform="translate(18.5 245.5) rotate(0 44.5 44.5)"><path d="M28.1 3.42 C34.76 0.11, 44.92 -0.55, 52.91 0.99 C60.89 2.53, 70.23 6.94, 75.99 12.67 C81.75 18.39, 85.88 27.39, 87.47 35.34 C89.05 43.3, 88.18 52.95, 85.49 60.4 C82.81 67.86, 77.74 75.46, 71.35 80.06 C64.96 84.65, 55 87.41, 47.15 87.97 C39.29 88.54, 31.31 87.04, 24.23 83.46 C17.15 79.88, 8.6 73.52, 4.68 66.48 C0.75 59.45, 0.02 49.23, 0.69 41.25 C1.35 33.27, 3.36 25.09, 8.68 18.61 C14 12.13, 27.73 5.09, 32.6 2.34 C37.48 -0.4, 37.81 1.69, 37.92 2.14 M27.17 3.18 C33.66 -0.37, 43.24 -1.44, 51.33 0.04 C59.43 1.52, 69.49 6.57, 75.73 12.06 C81.97 17.56, 86.85 25.4, 88.78 33 C90.71 40.59, 90.11 50.17, 87.31 57.62 C84.52 65.07, 78.14 72.75, 72 77.72 C65.87 82.69, 58.48 86.2, 50.51 87.45 C42.55 88.69, 31.46 88.36, 24.22 85.18 C16.98 81.99, 11.23 75.57, 7.08 68.33 C2.93 61.08, -0.62 49.99, -0.67 41.7 C-0.71 33.41, 1.95 25.02, 6.82 18.6 C11.69 12.18, 25.17 5.71, 28.56 3.18 C31.94 0.65, 27.03 2.74, 27.12 3.41" stroke="#e03131" stroke-width="1" fill="none"></path></g><g transform="translate(51.31499823719861 278.03374823719867) rotate(0 11.71875 12.000000000000014)"><text x="11.71875" y="0" font-family="Cascadia, Segoe UI Emoji" font-size="20px" fill="#e03131" text-anchor="middle" style="white-space: pre;" direction="ltr" dominant-baseline="text-before-edge">C1</text></g><g stroke-linecap="round" transform="translate(403.75 226.25) rotate(0 44.5 44.5)"><path d="M46.63 0.14 C54.4 -0.1, 64.67 3.7, 71.17 8.55 C77.67 13.41, 82.96 21.65, 85.64 29.28 C88.31 36.91, 88.82 46.55, 87.23 54.31 C85.64 62.08, 81.74 70.42, 76.1 75.87 C70.47 81.33, 61.09 85.33, 53.41 87.03 C45.73 88.72, 37.56 88.59, 30.01 86.05 C22.47 83.51, 13.02 78.19, 8.14 71.78 C3.26 65.37, 1.21 55.56, 0.73 47.59 C0.26 39.62, 1.61 30.84, 5.29 23.96 C8.98 17.09, 14.78 10.1, 22.85 6.33 C30.92 2.57, 48 2.06, 53.72 1.35 C59.43 0.65, 57.57 1.39, 57.13 2.11 M37.68 -0.26 C45.35 -1.81, 56.79 0.98, 64.41 4.43 C72.03 7.88, 79.2 13.83, 83.39 20.45 C87.58 27.07, 89.93 36.29, 89.56 44.15 C89.19 52.01, 85.48 60.98, 81.17 67.6 C76.86 74.23, 71.02 80.27, 63.69 83.89 C56.37 87.51, 45.21 90.16, 37.23 89.31 C29.25 88.47, 21.83 84.52, 15.79 78.84 C9.75 73.17, 3.46 63.25, 0.97 55.26 C-1.51 47.26, -1.78 38.38, 0.87 30.89 C3.53 23.4, 10.71 15.53, 16.91 10.3 C23.1 5.08, 34.41 1.11, 38.05 -0.45 C41.68 -2, 38.29 0.12, 38.73 0.96" stroke="#e03131" stroke-width="1" fill="none"></path></g><g transform="translate(436.56499823719867 258.78374823719867) rotate(0 11.71875 12)"><text x="11.71875" y="0" font-family="Cascadia, Segoe UI Emoji" font-size="20px" fill="#e03131" text-anchor="middle" style="white-space: pre;" direction="ltr" dominant-baseline="text-before-edge">C2</text></g><g stroke-linecap="round" transform="translate(219 385.25) rotate(0 44.5 44.5)"><path d="M55.72 1.24 C63.3 2.61, 71.3 8.77, 76.59 14.77 C81.88 20.77, 85.98 29.41, 87.47 37.22 C88.96 45.03, 88.61 54.47, 85.54 61.62 C82.47 68.77, 75.5 75.62, 69.06 80.14 C62.62 84.65, 54.93 88.21, 46.9 88.72 C38.88 89.22, 27.84 87.27, 20.91 83.16 C13.98 79.05, 8.77 71.2, 5.32 64.06 C1.88 56.91, -0.49 48.08, 0.25 40.3 C0.99 32.52, 4.58 23.59, 9.77 17.35 C14.96 11.12, 23.37 5.53, 31.4 2.88 C39.43 0.23, 53.12 1.13, 57.94 1.44 C62.76 1.75, 60.52 3.93, 60.34 4.75 M41.78 0.36 C49.68 -0.86, 59.54 1.21, 66.55 4.79 C73.57 8.38, 80.22 15.04, 83.86 21.87 C87.51 28.71, 88.8 37.85, 88.42 45.78 C88.05 53.72, 86.31 62.61, 81.59 69.46 C76.87 76.3, 67.63 83.57, 60.09 86.85 C52.55 90.13, 44.25 91.1, 36.35 89.13 C28.46 87.15, 18.76 80.9, 12.72 75.02 C6.67 69.15, 1.55 61.51, 0.06 53.87 C-1.42 46.23, 1.01 36.78, 3.8 29.19 C6.59 21.61, 10.65 13.25, 16.81 8.36 C22.97 3.47, 36.51 1.1, 40.76 -0.16 C45.01 -1.41, 42.11 0.01, 42.32 0.85" stroke="#e03131" stroke-width="1" fill="none"></path></g><g transform="translate(251.81499823719867 417.7837482371986) rotate(0 11.71875 12)"><text x="11.71875" y="0" font-family="Cascadia, Segoe UI Emoji" font-size="20px" fill="#e03131" text-anchor="middle" style="white-space: pre;" direction="ltr" dominant-baseline="text-before-edge">C3</text></g><g stroke-linecap="round" transform="translate(10 597) rotate(0 44.5 44.5)"><path d="M45.05 0.64 C52.5 0.32, 61.86 3.87, 68.57 8.28 C75.28 12.68, 82.13 19.95, 85.29 27.05 C88.45 34.16, 88.71 43.08, 87.53 50.93 C86.36 58.77, 83.63 67.98, 78.24 74.13 C72.84 80.28, 62.93 85.77, 55.15 87.83 C47.38 89.89, 39.1 88.91, 31.61 86.5 C24.12 84.09, 15.45 79.38, 10.23 73.39 C5.01 67.41, 1.07 58.54, 0.28 50.59 C-0.52 42.64, 2.04 33.18, 5.44 25.7 C8.85 18.23, 13.75 9.88, 20.72 5.72 C27.7 1.55, 42.35 1.47, 47.27 0.71 C52.19 -0.05, 50.18 0.63, 50.23 1.16 M36.15 0.63 C43.39 -1.78, 53.3 -0.69, 60.53 1.94 C67.77 4.57, 74.66 10.07, 79.58 16.4 C84.5 22.74, 89.44 31.59, 90.04 39.96 C90.63 48.32, 87.03 59.16, 83.14 66.6 C79.25 74.03, 73.77 81.05, 66.7 84.55 C59.63 88.05, 49.03 88.41, 40.71 87.58 C32.4 86.75, 22.94 84.19, 16.83 79.57 C10.71 74.95, 6.75 67.43, 4.01 59.88 C1.27 52.33, -1.09 42.14, 0.4 34.29 C1.88 26.44, 6.93 18.35, 12.93 12.78 C18.94 7.21, 32.56 2.61, 36.41 0.84 C40.25 -0.93, 36.13 1.26, 36 2.16" stroke="#2f9e44" stroke-width="1" fill="none"></path></g><g transform="translate(42.81499823719861 629.5337482371987) rotate(0 11.71875 12)"><text x="11.71875" y="0" font-family="Cascadia, Segoe UI Emoji" font-size="20px" fill="#2f9e44" text-anchor="middle" style="white-space: pre;" direction="ltr" dominant-baseline="text-before-edge">L1</text></g><g stroke-linecap="round" transform="translate(408.75 591.75) rotate(0 44.5 44.5)"><path d="M40.77 0.76 C48.39 -0.44, 58.96 2.08, 65.97 5.7 C72.98 9.33, 78.88 15.52, 82.82 22.52 C86.76 29.51, 90.26 39.48, 89.63 47.68 C89 55.89, 83.91 65.37, 79.04 71.74 C74.17 78.11, 67.78 83.1, 60.4 85.88 C53.02 88.66, 42.72 90, 34.78 88.44 C26.85 86.88, 18.27 82.21, 12.8 76.52 C7.33 70.83, 3.7 62.39, 1.96 54.29 C0.22 46.18, -0.21 35.38, 2.34 27.88 C4.89 20.38, 9.73 13.94, 17.25 9.29 C24.78 4.64, 41.45 1.32, 47.49 -0.02 C53.53 -1.37, 53.58 0.35, 53.5 1.22 M48.06 -0.74 C55.42 -1.01, 63.99 2.7, 70.53 7.4 C77.07 12.11, 84.45 19.62, 87.29 27.49 C90.13 35.36, 89.3 46.39, 87.57 54.62 C85.83 62.85, 82.58 71.54, 76.89 76.87 C71.2 82.21, 61.58 85.17, 53.44 86.63 C45.3 88.1, 35.26 88.25, 28.05 85.65 C20.83 83.06, 14.92 77.5, 10.16 71.06 C5.41 64.62, 0.33 55.03, -0.48 47.02 C-1.29 39.01, 1.16 29.97, 5.31 23.02 C9.47 16.07, 17.29 9.11, 24.46 5.33 C31.63 1.56, 44.56 0.94, 48.34 0.36 C52.13 -0.22, 47.12 1.1, 47.17 1.85" stroke="#2f9e44" stroke-width="1" fill="none"></path></g><g transform="translate(441.56499823719867 624.2837482371987) rotate(0 11.71875 12)"><text x="11.71875" y="0" font-family="Cascadia, Segoe UI Emoji" font-size="20px" fill="#2f9e44" text-anchor="middle" style="white-space: pre;" direction="ltr" dominant-baseline="text-before-edge">L2</text></g><g stroke-linecap="round" transform="translate(807.75 589) rotate(0 44.5 44.5)"><path d="M58.19 2.32 C65.62 3.82, 72.89 9.32, 78.1 15.46 C83.32 21.61, 88.58 31.02, 89.48 39.2 C90.38 47.37, 87.07 57.35, 83.5 64.52 C79.93 71.69, 74.77 78.05, 68.06 82.21 C61.34 86.38, 51.33 89.53, 43.21 89.49 C35.08 89.45, 25.77 86.47, 19.32 81.96 C12.86 77.44, 7.7 70.04, 4.5 62.39 C1.3 54.74, -0.98 43.97, 0.1 36.07 C1.17 28.16, 5.47 20.75, 10.94 14.96 C16.42 9.17, 24.58 3.37, 32.95 1.32 C41.32 -0.73, 56.07 1.86, 61.16 2.66 C66.24 3.45, 63.69 5.16, 63.46 6.09 M38.08 -0.97 C45.65 -2.68, 57.25 -0.86, 64.52 2.91 C71.79 6.67, 77.49 14.46, 81.7 21.63 C85.92 28.8, 89.91 38.29, 89.8 45.95 C89.68 53.61, 85.73 61.16, 81.02 67.6 C76.31 74.03, 68.55 81.11, 61.54 84.55 C54.52 87.99, 46.78 89.49, 38.93 88.24 C31.09 86.98, 20.66 82.34, 14.44 77.02 C8.23 71.71, 3.49 63.94, 1.64 56.33 C-0.2 48.72, 0.89 38.95, 3.37 31.37 C5.85 23.79, 10.7 15.88, 16.52 10.86 C22.35 5.84, 34.38 2.8, 38.32 1.26 C42.26 -0.29, 40.13 1.17, 40.16 1.59" stroke="#2f9e44" stroke-width="1" fill="none"></path></g><g transform="translate(840.5649982371986 621.5337482371987) rotate(0 11.71875 12)"><text x="11.71875" y="0" font-family="Cascadia, Segoe UI Emoji" font-size="20px" fill="#2f9e44" text-anchor="middle" style="white-space: pre;" direction="ltr" dominant-baseline="text-before-edge">L3</text></g><g mask="url(#mask--9wwEKTs4PPyXPgT6Ghh4)" stroke-linecap="round"><g transform="translate(395.7114917013646 84.40899862339772) rotate(0 -146.2405339437509 91.19606054065812)"><path d="M0 0 C-85.52 54.42, -168.48 106.05, -292.48 182.39 M0 0 C-63.77 39.86, -125.91 79.87, -292.48 182.39" stroke="#1e1e1e" stroke-width="1" fill="none"></path></g><g transform="translate(395.7114917013646 84.40899862339772) rotate(0 -146.2405339437509 91.19606054065812)"><path d="M-277 162.76 C-283.16 169.83, -286.15 174.39, -292.48 182.39 M-277 162.76 C-280.74 166.15, -283.43 171.87, -292.48 182.39" stroke="#1e1e1e" stroke-width="1" fill="none"></path></g><g transform="translate(395.7114917013646 84.40899862339772) rotate(0 -146.2405339437509 91.19606054065812)"><path d="M-268 177.3 C-276.68 180.25, -282.25 180.65, -292.48 182.39 M-268 177.3 C-273.54 177.65, -278.16 180.26, -292.48 182.39" stroke="#1e1e1e" stroke-width="1" fill="none"></path></g></g><mask id="mask--9wwEKTs4PPyXPgT6Ghh4"><rect x="0" y="0" fill="#fff" width="788.1925595888664" height="366.801119704714"></rect><rect x="231.89283275761363" y="163.60505916405583" fill="#000" width="35.15625" height="24" opacity="1"></rect></mask><g transform="translate(231.89283275761363 163.60505916405586) rotate(0 17.578125000000057 11.999999999999986)"><text x="17.578125" y="0" font-family="Cascadia, Segoe UI Emoji" font-size="20px" fill="#1e1e1e" text-anchor="middle" style="white-space: pre;" direction="ltr" dominant-baseline="text-before-edge">0.3</text></g><g mask="url(#mask-WrMURIJRmL2SudvjF9MRW)" stroke-linecap="round"><g transform="translate(477.17246974332556 64.5168381900098) rotate(0 164.33843849634445 80.49311147807609)"><path d="M0 0 C118.36 57.23, 236.69 114.38, 328.68 160.99 M0 0 C123.71 62.88, 246.96 123.11, 328.68 160.99" stroke="#1e1e1e" stroke-width="1" fill="none"></path></g><g transform="translate(477.17246974332556 64.5168381900098) rotate(0 164.33843849634445 80.49311147807609)"><path d="M303.78 158.66 C312.62 159.61, 320.11 158.41, 328.68 160.99 M303.78 158.66 C313.51 160.37, 322.11 160.64, 328.68 160.99" stroke="#1e1e1e" stroke-width="1" fill="none"></path></g><g transform="translate(477.17246974332556 64.5168381900098) rotate(0 164.33843849634445 80.49311147807609)"><path d="M311.1 143.21 C317.16 149.81, 321.99 154.22, 328.68 160.99 M311.1 143.21 C318.03 150.66, 323.88 156.76, 328.68 160.99" stroke="#1e1e1e" stroke-width="1" fill="none"></path></g></g><mask id="mask-WrMURIJRmL2SudvjF9MRW"><rect x="0" y="0" fill="#fff" width="905.8493467360145" height="325.503061146162"></rect><rect x="623.93278323967" y="133.00994966808588" fill="#000" width="35.15625" height="24" opacity="1"></rect></mask><g transform="translate(623.93278323967 133.0099496680859) rotate(0 17.578125 11.999999999999986)"><text x="17.578125" y="0" font-family="Cascadia, Segoe UI Emoji" font-size="20px" fill="#1e1e1e" text-anchor="middle" style="white-space: pre;" direction="ltr" dominant-baseline="text-before-edge">0.7</text></g><g mask="url(#mask-r2BdLcMnM8dCYqsGGiM5T)" stroke-linecap="round"><g transform="translate(112.63315535613071 281.690373691062) rotate(0 145.10138023041424 -4.072782303560217)"><path d="M0 0 C105.15 -4.61, 214.01 -6.65, 290.2 -8.15 M0 0 C59.81 -2.98, 120.63 -4.71, 290.2 -8.15" stroke="#1e1e1e" stroke-width="1" fill="none"></path></g><g transform="translate(112.63315535613071 281.690373691062) rotate(0 145.10138023041424 -4.072782303560217)"><path d="M266.9 0.91 C273.73 -4.22, 285.53 -6.27, 290.2 -8.15 M266.9 0.91 C271.29 -1.11, 277.03 -3.03, 290.2 -8.15" stroke="#1e1e1e" stroke-width="1" fill="none"></path></g><g transform="translate(112.63315535613071 281.690373691062) rotate(0 145.10138023041424 -4.072782303560217)"><path d="M266.53 -16.19 C273.48 -15.05, 285.42 -10.83, 290.2 -8.15 M266.53 -16.19 C271.06 -14.66, 276.88 -13.04, 290.2 -8.15" stroke="#1e1e1e" stroke-width="1" fill="none"></path></g></g><mask id="mask-r2BdLcMnM8dCYqsGGiM5T"><rect x="0" y="0" fill="#fff" width="502.8359158169592" height="389.83593829818244"></rect><rect x="240.156410586545" y="265.6175913875018" fill="#000" width="35.15625" height="24" opacity="1"></rect></mask><g transform="translate(240.156410586545 265.61759138750176) rotate(0 17.578124999999943 12)"><text x="17.578125" y="0" font-family="Cascadia, Segoe UI Emoji" font-size="20px" fill="#1e1e1e" text-anchor="middle" style="white-space: pre;" direction="ltr" dominant-baseline="text-before-edge">0.4</text></g><g mask="url(#mask-DJoSnx8dmhexyZSpFXJLB)" stroke-linecap="round"><g transform="translate(410.82347948487563 296.8720828932158) rotate(0 -52.89644124864549 57.145687952376164)"><path d="M0 0 C-32.61 34.37, -69.15 71.42, -105.79 114.29 M0 0 C-38 41.05, -75.82 83.2, -105.79 114.29" stroke="#1e1e1e" stroke-width="1" fill="none"></path></g><g transform="translate(410.82347948487563 296.8720828932158) rotate(0 -52.89644124864549 57.145687952376164)"><path d="M-95.9 91.33 C-97.67 97.93, -104.15 106.36, -105.79 114.29 M-95.9 91.33 C-99.04 99.54, -102.37 108.85, -105.79 114.29" stroke="#1e1e1e" stroke-width="1" fill="none"></path></g><g transform="translate(410.82347948487563 296.8720828932158) rotate(0 -52.89644124864549 57.145687952376164)"><path d="M-83.46 103.06 C-89.02 105.88, -99.41 110.63, -105.79 114.29 M-83.46 103.06 C-91.02 107.05, -98.83 112.14, -105.79 114.29" stroke="#1e1e1e" stroke-width="1" fill="none"></path></g></g><mask id="mask-DJoSnx8dmhexyZSpFXJLB"><rect x="0" y="0" fill="#fff" width="616.6163619821666" height="511.16345879796813"></rect><rect x="340.34891323623015" y="342.0177708455919" fill="#000" width="35.15625" height="24" opacity="1"></rect></mask><g transform="translate(340.34891323623015 342.01777084559194) rotate(0 17.578125 12.000000000000028)"><text x="17.578125" y="0" font-family="Cascadia, Segoe UI Emoji" font-size="20px" fill="#1e1e1e" text-anchor="middle" style="white-space: pre;" direction="ltr" dominant-baseline="text-before-edge">0.2</text></g><g mask="url(#mask-VE8k6z_a74CV1mvsra_bQ)" stroke-linecap="round"><g transform="translate(218.999167801348 412.2380733489085) rotate(0 -60.06944769524276 -47.116439927611765)"><path d="M0 0 C-27.96 -19.49, -50.29 -40.93, -120.14 -94.23 M0 0 C-35.79 -27.33, -71.98 -57.16, -120.14 -94.23" stroke="#1e1e1e" stroke-width="1" fill="none"></path></g><g transform="translate(218.999167801348 412.2380733489085) rotate(0 -60.06944769524276 -47.116439927611765)"><path d="M-96.36 -86.52 C-103.3 -87.49, -105.27 -90.65, -120.14 -94.23 M-96.36 -86.52 C-102.79 -87.85, -110.08 -91.72, -120.14 -94.23" stroke="#1e1e1e" stroke-width="1" fill="none"></path></g><g transform="translate(218.999167801348 412.2380733489085) rotate(0 -60.06944769524276 -47.116439927611765)"><path d="M-106.88 -73.04 C-111.7 -76.83, -111.45 -82.84, -120.14 -94.23 M-106.88 -73.04 C-110.23 -78.41, -114.35 -86.32, -120.14 -94.23" stroke="#1e1e1e" stroke-width="1" fill="none"></path></g></g><mask id="mask-VE8k6z_a74CV1mvsra_bQ"><rect x="0" y="0" fill="#fff" width="439.1380631918335" height="606.470953204132"></rect><rect x="141.35159510610526" y="353.1216334212966" fill="#000" width="35.15625" height="24" opacity="1"></rect></mask><g transform="translate(141.35159510610526 353.1216334212967) rotate(0 17.57812499999997 12.000000000000028)"><text x="17.578125" y="0" font-family="Cascadia, Segoe UI Emoji" font-size="20px" fill="#1e1e1e" text-anchor="middle" style="white-space: pre;" direction="ltr" dominant-baseline="text-before-edge">0.5</text></g><g mask="url(#mask-4pVlUHbQvHQO2suCsDLJX)" stroke-linecap="round"><g transform="translate(802.0694216356328 279.4514898809468) rotate(0 -154.4169370310246 -0.9393482505221016)"><path d="M0 0 C-83.95 -0.3, -169.63 0.5, -308.83 -1.88 M0 0 C-90.77 1.26, -182.97 0.54, -308.83 -1.88" stroke="#1e1e1e" stroke-width="1" fill="none"></path></g><g transform="translate(802.0694216356328 279.4514898809468) rotate(0 -154.4169370310246 -0.9393482505221016)"><path d="M-285.21 -10.05 C-290.58 -8.53, -298.26 -4.46, -308.83 -1.88 M-285.21 -10.05 C-291.53 -7.96, -299.92 -5.78, -308.83 -1.88" stroke="#1e1e1e" stroke-width="1" fill="none"></path></g><g transform="translate(802.0694216356328 279.4514898809468) rotate(0 -154.4169370310246 -0.9393482505221016)"><path d="M-285.48 7.05 C-290.62 3.87, -298.23 3.25, -308.83 -1.88 M-285.48 7.05 C-291.86 4.09, -300.16 1.22, -308.83 -1.88" stroke="#1e1e1e" stroke-width="1" fill="none"></path></g></g><mask id="mask-4pVlUHbQvHQO2suCsDLJX"><rect x="0" y="0" fill="#fff" width="1210.903295697682" height="381.330186381991"></rect><rect x="630.0743596046082" y="266.51214163042465" fill="#000" width="35.15625" height="24" opacity="1"></rect></mask><g transform="translate(630.0743596046082 266.5121416304247) rotate(0 17.578125000000057 12.306253218916936)"><text x="17.578125" y="0" font-family="Cascadia, Segoe UI Emoji" font-size="20px" fill="#1e1e1e" text-anchor="middle" style="white-space: pre;" direction="ltr" dominant-baseline="text-before-edge">0.7</text></g><g mask="url(#mask-ES3G41VztI2j52MkS8AV_)" stroke-linecap="round"><g transform="translate(836.4036378251228 300.48883528784614) rotate(0 5.32540244236543 143.9043866772815)"><path d="M0 0 C4.87 97.55, 8.38 194.65, 10.65 287.81 M0 0 C4.92 114.57, 10.22 230.08, 10.65 287.81" stroke="#1e1e1e" stroke-width="1" fill="none"></path></g><g transform="translate(836.4036378251228 300.48883528784614) rotate(0 5.32540244236543 143.9043866772815)"><path d="M1.55 264.53 C4.75 273.41, 7.71 281.69, 10.65 287.81 M1.55 264.53 C4.51 273.1, 9.53 282.94, 10.65 287.81" stroke="#1e1e1e" stroke-width="1" fill="none"></path></g><g transform="translate(836.4036378251228 300.48883528784614) rotate(0 5.32540244236543 143.9043866772815)"><path d="M18.64 264.12 C16.1 273.07, 13.32 281.49, 10.65 287.81 M18.64 264.12 C14.77 272.76, 12.96 282.76, 10.65 287.81" stroke="#1e1e1e" stroke-width="1" fill="none"></path></g></g><mask id="mask-ES3G41VztI2j52MkS8AV_"><rect x="0" y="0" fill="#fff" width="947.0544427098537" height="688.2976086424092"></rect><rect x="824.1509152674882" y="432.39322196512757" fill="#000" width="35.15625" height="24" opacity="1"></rect></mask><g transform="translate(824.1509152674882 432.3932219651276) rotate(0 17.578125 12.000000000000028)"><text x="17.578125" y="0" font-family="Cascadia, Segoe UI Emoji" font-size="20px" fill="#1e1e1e" text-anchor="middle" style="white-space: pre;" direction="ltr" dominant-baseline="text-before-edge">0.3</text></g><g mask="url(#mask-z1juxNzplGop7jPzBmSYO)" stroke-linecap="round"><g transform="translate(456.0922500436475 315.56907087672516) rotate(0 2.787721701214764 137.98318142477194)"><path d="M0 0 C1.37 72.68, 4.44 144.01, 5.58 275.97 M0 0 C0.05 67.23, 0.87 134.71, 5.58 275.97" stroke="#1e1e1e" stroke-width="1" fill="none"></path></g><g transform="translate(456.0922500436475 315.56907087672516) rotate(0 2.787721701214764 137.98318142477194)"><path d="M-3.67 252.74 C-1.37 260.19, 3.12 265.92, 5.58 275.97 M-3.67 252.74 C-1.04 258.22, 0.51 263.99, 5.58 275.97" stroke="#1e1e1e" stroke-width="1" fill="none"></path></g><g transform="translate(456.0922500436475 315.56907087672516) rotate(0 2.787721701214764 137.98318142477194)"><path d="M13.42 252.23 C11.29 259.9, 11.35 265.76, 5.58 275.97 M13.42 252.23 C11.88 257.7, 9.25 263.6, 5.58 275.97" stroke="#1e1e1e" stroke-width="1" fill="none"></path></g></g><mask id="mask-z1juxNzplGop7jPzBmSYO"><rect x="0" y="0" fill="#fff" width="561.667693446077" height="691.535433726269"></rect><rect x="441.30184674486213" y="441.5522523014971" fill="#000" width="35.15625" height="24" opacity="1"></rect></mask><g transform="translate(441.30184674486236 441.55225230149705) rotate(0 17.578125 12)"><text x="17.578125" y="0" font-family="Cascadia, Segoe UI Emoji" font-size="20px" fill="#1e1e1e" text-anchor="middle" style="white-space: pre;" direction="ltr" dominant-baseline="text-before-edge">0.8</text></g><g mask="url(#mask-7I_bv_gHGqeOw0Vu_in2R)" stroke-linecap="round"><g transform="translate(282.2629263581355 471.20120739470906) rotate(0 70.2151748800884 65.66811686723707)"><path d="M0 0 C51.22 46.23, 97.39 89.51, 140.43 131.34 M0 0 C31.64 29.23, 62.17 57.99, 140.43 131.34" stroke="#1e1e1e" stroke-width="1" fill="none"></path></g><g transform="translate(282.2629263581355 471.20120739470906) rotate(0 70.2151748800884 65.66811686723707)"><path d="M117.44 121.51 C127.51 125.96, 132.46 126.6, 140.43 131.34 M117.44 121.51 C122.44 123.57, 127.01 125.48, 140.43 131.34" stroke="#1e1e1e" stroke-width="1" fill="none"></path></g><g transform="translate(282.2629263581355 471.20120739470906) rotate(0 70.2151748800884 65.66811686723707)"><path d="M129.14 109.03 C135.09 117.95, 135.94 122.96, 140.43 131.34 M129.14 109.03 C131.62 113.82, 133.61 118.49, 140.43 131.34" stroke="#1e1e1e" stroke-width="1" fill="none"></path></g></g><mask id="mask-7I_bv_gHGqeOw0Vu_in2R"><rect x="0" y="0" fill="#fff" width="522.6932761183123" height="702.5374411291832"></rect><rect x="334.89997623822387" y="524.8693242619462" fill="#000" width="35.15625" height="24" opacity="1"></rect></mask><g transform="translate(334.899976238224 524.8693242619462) rotate(0 17.578125 12)"><text x="17.578125" y="0" font-family="Cascadia, Segoe UI Emoji" font-size="20px" fill="#1e1e1e" text-anchor="middle" style="white-space: pre;" direction="ltr" dominant-baseline="text-before-edge">0.5</text></g><g mask="url(#mask-EUIN0dbrxCIM0QHmzrF_r)" stroke-linecap="round"><g transform="translate(50.17555378232254 340.1363997431995) rotate(0 -0.14984500592188965 126.7382213225344)"><path d="M0 0 C1.04 93.41, 0.55 190.39, -0.3 253.48 M0 0 C-0.89 69.01, 0.08 138.83, -0.3 253.48" stroke="#1e1e1e" stroke-width="1" fill="none"></path></g><g transform="translate(50.17555378232254 340.1363997431995) rotate(0 -0.14984500592188965 126.7382213225344)"><path d="M-8.83 229.98 C-6.52 237.07, -3.8 248.63, -0.3 253.48 M-8.83 229.98 C-7.18 235.99, -3.54 242.99, -0.3 253.48" stroke="#1e1e1e" stroke-width="1" fill="none"></path></g><g transform="translate(50.17555378232254 340.1363997431995) rotate(0 -0.14984500592188965 126.7382213225344)"><path d="M8.27 229.99 C4.18 237.18, 0.52 248.73, -0.3 253.48 M8.27 229.99 C5.24 235.97, 4.2 242.96, -0.3 253.48" stroke="#1e1e1e" stroke-width="1" fill="none"></path></g></g><mask id="mask-EUIN0dbrxCIM0QHmzrF_r"><rect x="0" y="0" fill="#fff" width="150.47524379416632" height="693.6128423882683"></rect><rect x="32.44758377640062" y="454.8746210657339" fill="#000" width="35.15625" height="24" opacity="1"></rect></mask><g transform="translate(32.44758377640062 454.8746210657339) rotate(0 17.826642474073708 12)"><text x="17.578125" y="0" font-family="Cascadia, Segoe UI Emoji" font-size="20px" fill="#1e1e1e" text-anchor="middle" style="white-space: pre;" direction="ltr" dominant-baseline="text-before-edge">0.6</text></g></svg>