<svg version="1.1" xmlns="http://www.w3.org/2000/svg" viewBox="0 0 889.4507903488594 988.1760306699372" width="889.4507903488594" height="988.1760306699372" filter="invert(93%) hue-rotate(180deg)">
  <!-- svg-source:excalidraw -->
  
  <defs>
    <style class="style-fonts">
      @font-face {
        font-family: "Virgil";
        src: url("https://excalidraw.com/Virgil.woff2");
      }
      @font-face {
        font-family: "Cascadia";
        src: url("https://excalidraw.com/Cascadia.woff2");
      }
      @font-face {
        font-family: "Assistant";
        src: url("https://excalidraw.com/Assistant-Regular.woff2");
      }
    </style>
    
  </defs>
  <rect x="0" y="0" width="889.4507903488594" height="988.1760306699372" fill="#ffffff"></rect><g stroke-linecap="round" transform="translate(396.6165140882855 330.2241685524042) rotate(0 44.5 44.5)"><path d="M28.1 3.42 C34.76 0.11, 44.92 -0.55, 52.91 0.99 C60.89 2.53, 70.23 6.94, 75.99 12.67 C81.75 18.39, 85.88 27.39, 87.47 35.34 C89.05 43.3, 88.18 52.95, 85.49 60.4 C82.81 67.86, 77.74 75.46, 71.35 80.06 C64.96 84.65, 55 87.41, 47.15 87.97 C39.29 88.54, 31.31 87.04, 24.23 83.46 C17.15 79.88, 8.6 73.52, 4.68 66.48 C0.75 59.45, 0.02 49.23, 0.69 41.25 C1.35 33.27, 3.36 25.09, 8.68 18.61 C14 12.13, 27.73 5.09, 32.6 2.34 C37.48 -0.4, 37.81 1.69, 37.92 2.14 M27.17 3.18 C33.66 -0.37, 43.24 -1.44, 51.33 0.04 C59.43 1.52, 69.49 6.57, 75.73 12.06 C81.97 17.56, 86.85 25.4, 88.78 33 C90.71 40.59, 90.11 50.17, 87.31 57.62 C84.52 65.07, 78.14 72.75, 72 77.72 C65.87 82.69, 58.48 86.2, 50.51 87.45 C42.55 88.69, 31.46 88.36, 24.22 85.18 C16.98 81.99, 11.23 75.57, 7.08 68.33 C2.93 61.08, -0.62 49.99, -0.67 41.7 C-0.71 33.41, 1.95 25.02, 6.82 18.6 C11.69 12.18, 25.17 5.71, 28.56 3.18 C31.94 0.65, 27.03 2.74, 27.12 3.41" stroke="#e03131" stroke-width="1" fill="none"></path></g><g transform="translate(429.43151232548405 362.75791678960286) rotate(0 11.71875 12)"><text x="11.71875" y="0" font-family="Cascadia, Segoe UI Emoji" font-size="20px" fill="#e03131" text-anchor="middle" style="white-space: pre;" direction="ltr" dominant-baseline="text-before-edge">C1</text></g><g stroke-linecap="round" transform="translate(581.8665140882855 625.9741685524042) rotate(0 44.5 44.5)"><path d="M46.63 0.14 C54.4 -0.1, 64.67 3.7, 71.17 8.55 C77.67 13.41, 82.96 21.65, 85.64 29.28 C88.31 36.91, 88.82 46.55, 87.23 54.31 C85.64 62.08, 81.74 70.42, 76.1 75.87 C70.47 81.33, 61.09 85.33, 53.41 87.03 C45.73 88.72, 37.56 88.59, 30.01 86.05 C22.47 83.51, 13.02 78.19, 8.14 71.78 C3.26 65.37, 1.21 55.56, 0.73 47.59 C0.26 39.62, 1.61 30.84, 5.29 23.96 C8.98 17.09, 14.78 10.1, 22.85 6.33 C30.92 2.57, 48 2.06, 53.72 1.35 C59.43 0.65, 57.57 1.39, 57.13 2.11 M37.68 -0.26 C45.35 -1.81, 56.79 0.98, 64.41 4.43 C72.03 7.88, 79.2 13.83, 83.39 20.45 C87.58 27.07, 89.93 36.29, 89.56 44.15 C89.19 52.01, 85.48 60.98, 81.17 67.6 C76.86 74.23, 71.02 80.27, 63.69 83.89 C56.37 87.51, 45.21 90.16, 37.23 89.31 C29.25 88.47, 21.83 84.52, 15.79 78.84 C9.75 73.17, 3.46 63.25, 0.97 55.26 C-1.51 47.26, -1.78 38.38, 0.87 30.89 C3.53 23.4, 10.71 15.53, 16.91 10.3 C23.1 5.08, 34.41 1.11, 38.05 -0.45 C41.68 -2, 38.29 0.12, 38.73 0.96" stroke="#e03131" stroke-width="1" fill="none"></path></g><g transform="translate(614.6815123254842 658.5079167896029) rotate(0 11.71875 12)"><text x="11.71875" y="0" font-family="Cascadia, Segoe UI Emoji" font-size="20px" fill="#e03131" text-anchor="middle" style="white-space: pre;" direction="ltr" dominant-baseline="text-before-edge">C2</text></g><g stroke-linecap="round" transform="translate(224.6165140882855 609.9741685524042) rotate(0 44.5 44.5)"><path d="M55.72 1.24 C63.3 2.61, 71.3 8.77, 76.59 14.77 C81.88 20.77, 85.98 29.41, 87.47 37.22 C88.96 45.03, 88.61 54.47, 85.54 61.62 C82.47 68.77, 75.5 75.62, 69.06 80.14 C62.62 84.65, 54.93 88.21, 46.9 88.72 C38.88 89.22, 27.84 87.27, 20.91 83.16 C13.98 79.05, 8.77 71.2, 5.32 64.06 C1.88 56.91, -0.49 48.08, 0.25 40.3 C0.99 32.52, 4.58 23.59, 9.77 17.35 C14.96 11.12, 23.37 5.53, 31.4 2.88 C39.43 0.23, 53.12 1.13, 57.94 1.44 C62.76 1.75, 60.52 3.93, 60.34 4.75 M41.78 0.36 C49.68 -0.86, 59.54 1.21, 66.55 4.79 C73.57 8.38, 80.22 15.04, 83.86 21.87 C87.51 28.71, 88.8 37.85, 88.42 45.78 C88.05 53.72, 86.31 62.61, 81.59 69.46 C76.87 76.3, 67.63 83.57, 60.09 86.85 C52.55 90.13, 44.25 91.1, 36.35 89.13 C28.46 87.15, 18.76 80.9, 12.72 75.02 C6.67 69.15, 1.55 61.51, 0.06 53.87 C-1.42 46.23, 1.01 36.78, 3.8 29.19 C6.59 21.61, 10.65 13.25, 16.81 8.36 C22.97 3.47, 36.51 1.1, 40.76 -0.16 C45.01 -1.41, 42.11 0.01, 42.32 0.85" stroke="#e03131" stroke-width="1" fill="none"></path></g><g transform="translate(257.43151232548416 642.5079167896029) rotate(0 11.71875 12)"><text x="11.71875" y="0" font-family="Cascadia, Segoe UI Emoji" font-size="20px" fill="#e03131" text-anchor="middle" style="white-space: pre;" direction="ltr" dominant-baseline="text-before-edge">C3</text></g><g mask="url(#mask-r2BdLcMnM8dCYqsGGiM5T)" stroke-linecap="round"><g transform="translate(472.36717063646427 414.16902202288594) rotate(0 64.73530703235423 108.99147051300062)"><path d="M0 0 C45.93 78.37, 96.05 159.34, 129.47 217.98 M0 0 C27.14 44.55, 54.71 89.68, 129.47 217.98" stroke="#e03131" stroke-width="1" fill="none"></path></g><g transform="translate(472.36717063646427 414.16902202288594) rotate(0 64.73530703235423 108.99147051300062)"><path d="M110.22 202.04 C115.54 206.08, 125.85 213.2, 129.47 217.98 M110.22 202.04 C113.86 205.23, 118.76 208.48, 129.47 217.98" stroke="#e03131" stroke-width="1" fill="none"></path></g><g transform="translate(472.36717063646427 414.16902202288594) rotate(0 64.73530703235423 108.99147051300062)"><path d="M124.97 193.39 C124.88 200.63, 129.78 210.92, 129.47 217.98 M124.97 193.39 C125.59 198.46, 127.43 203.51, 129.47 217.98" stroke="#e03131" stroke-width="1" fill="none"></path></g></g><mask id="mask-r2BdLcMnM8dCYqsGGiM5T"><rect x="0" y="0" fill="#fff" width="701.8377847011727" height="732.1519630488872"></rect><rect x="519.5243526688184" y="511.1604925358866" fill="#000" width="35.15625" height="24" opacity="1"></rect></mask><g transform="translate(519.5243526688187 511.16049253588653) rotate(0 17.578124999999943 12)"><text x="17.578125" y="0" font-family="Cascadia, Segoe UI Emoji" font-size="20px" fill="#e03131" text-anchor="middle" style="white-space: pre;" direction="ltr" dominant-baseline="text-before-edge">0.4</text></g><g mask="url(#mask-DJoSnx8dmhexyZSpFXJLB)" stroke-linecap="round"><g transform="translate(581.5139930342866 662.0267424562697) rotate(0 -134.989940591618 4.454712380412417)"><path d="M0 0 C-83.47 0.52, -170.73 4.27, -269.98 8.91 M0 0 C-96.72 3.17, -193.63 7.19, -269.98 8.91" stroke="#e03131" stroke-width="1" fill="none"></path></g><g transform="translate(581.5139930342866 662.0267424562697) rotate(0 -134.989940591618 4.454712380412417)"><path d="M-246.74 -0.3 C-252.57 1.87, -263.24 5.99, -269.98 8.91 M-246.74 -0.3 C-254.62 2.96, -262.75 7.32, -269.98 8.91" stroke="#e03131" stroke-width="1" fill="none"></path></g><g transform="translate(581.5139930342866 662.0267424562697) rotate(0 -134.989940591618 4.454712380412417)"><path d="M-246.26 16.79 C-252.09 13.6, -262.91 12.36, -269.98 8.91 M-246.26 16.79 C-254.25 13.91, -262.55 12.12, -269.98 8.91" stroke="#e03131" stroke-width="1" fill="none"></path></g></g><mask id="mask-DJoSnx8dmhexyZSpFXJLB"><rect x="0" y="0" fill="#fff" width="951.4938742175226" height="770.9361672170946"></rect><rect x="428.9459274426687" y="654.4814548366821" fill="#000" width="35.15625" height="24" opacity="1"></rect></mask><g transform="translate(428.94592744266856 654.4814548366821) rotate(0 17.578124999999943 12.000000000000028)"><text x="17.578125" y="0" font-family="Cascadia, Segoe UI Emoji" font-size="20px" fill="#e03131" text-anchor="middle" style="white-space: pre;" direction="ltr" dominant-baseline="text-before-edge">0.2</text></g><g mask="url(#mask-VE8k6z_a74CV1mvsra_bQ)" stroke-linecap="round"><g transform="translate(283.3625448808856 608.8228569823947) rotate(0 66.19703624050021 -98.16068599090244)"><path d="M0 0 C25.15 -40.59, 55.68 -83.35, 132.39 -196.32 M0 0 C39.5 -58.01, 79.1 -118.22, 132.39 -196.32" stroke="#e03131" stroke-width="1" fill="none"></path></g><g transform="translate(283.3625448808856 608.8228569823947) rotate(0 66.19703624050021 -98.16068599090244)"><path d="M126.3 -172.08 C125.54 -176.46, 129.88 -183.12, 132.39 -196.32 M126.3 -172.08 C128.74 -178.35, 130.42 -187.18, 132.39 -196.32" stroke="#e03131" stroke-width="1" fill="none"></path></g><g transform="translate(283.3625448808856 608.8228569823947) rotate(0 66.19703624050021 -98.16068599090244)"><path d="M112.14 -181.67 C114.45 -183.99, 121.78 -188.62, 132.39 -196.32 M112.14 -181.67 C118.88 -185.06, 124.81 -191.01, 132.39 -196.32" stroke="#e03131" stroke-width="1" fill="none"></path></g></g><mask id="mask-VE8k6z_a74CV1mvsra_bQ"><rect x="0" y="0" fill="#fff" width="515.756617361886" height="905.1442289641996"></rect><rect x="331.9814561213858" y="498.6621709914923" fill="#000" width="35.15625" height="24" opacity="1"></rect></mask><g transform="translate(331.9814561213858 498.6621709914922) rotate(0 17.578125 12)"><text x="17.578125" y="0" font-family="Cascadia, Segoe UI Emoji" font-size="20px" fill="#e03131" text-anchor="middle" style="white-space: pre;" direction="ltr" dominant-baseline="text-before-edge">0.5</text></g><g stroke-linecap="round" transform="translate(397.3665140882855 99.9741685524042) rotate(0 44.5 44.5)"><path d="M37.95 0.11 C45.38 -1.76, 55.43 0.09, 62.78 3.33 C70.13 6.56, 77.58 12.74, 82.06 19.51 C86.54 26.29, 89.53 35.82, 89.66 43.98 C89.8 52.14, 87.32 61.85, 82.85 68.49 C78.39 75.13, 70.32 80.51, 62.86 83.8 C55.41 87.08, 45.9 88.94, 38.13 88.2 C30.37 87.45, 22.38 84.58, 16.27 79.34 C10.15 74.11, 3.83 64.5, 1.45 56.78 C-0.94 49.06, -0.24 40.55, 1.97 33.03 C4.19 25.52, 7.99 17.12, 14.73 11.67 C21.47 6.21, 36.91 2.15, 42.4 0.31 C47.89 -1.53, 47.5 -0.01, 47.68 0.62 M31.69 2.63 C38.66 -0.37, 47.74 -1.53, 55.38 0.32 C63.02 2.18, 72.15 7.58, 77.54 13.75 C82.93 19.92, 86.31 29.31, 87.71 37.35 C89.11 45.39, 89.04 54.88, 85.95 62 C82.85 69.11, 75.81 75.77, 69.12 80.06 C62.44 84.34, 54.03 87.1, 45.85 87.72 C37.66 88.35, 27.05 87.7, 20 83.78 C12.96 79.86, 7.02 71.61, 3.58 64.19 C0.13 56.77, -1.96 47.2, -0.64 39.26 C0.67 31.32, 6.34 22.89, 11.46 16.57 C16.58 10.24, 26.67 3.36, 30.05 1.32 C33.44 -0.73, 31.65 3.41, 31.78 4.3" stroke="#2f9e44" stroke-width="1" fill="none"></path></g><g transform="translate(424.32213732548416 132.50791678960283) rotate(0 17.578125 12)"><text x="17.578125" y="0" font-family="Cascadia, Segoe UI Emoji" font-size="20px" fill="#2f9e44" text-anchor="middle" style="white-space: pre;" direction="ltr" dominant-baseline="text-before-edge">C1*</text></g><g mask="url(#mask-e5syOLfg98yXlMtRlB-AM)" stroke-linecap="round"><g transform="translate(440.35567609057375 326.97761238820283) rotate(0 -0.369223172497982 -68.12028648932264)"><path d="M0 0 C1.53 -34.16, 0.43 -67.39, -0.74 -136.24 M0 0 C-0.45 -30.97, -1.28 -63.2, -0.74 -136.24" stroke="#2f9e44" stroke-width="1" fill="none"></path></g><g transform="translate(440.35567609057375 326.97761238820283) rotate(0 -0.369223172497982 -68.12028648932264)"><path d="M7.74 -112.72 C6.4 -119.54, 3.42 -125.48, -0.74 -136.24 M7.74 -112.72 C5.93 -117.27, 3.28 -123.06, -0.74 -136.24" stroke="#2f9e44" stroke-width="1" fill="none"></path></g><g transform="translate(440.35567609057375 326.97761238820283) rotate(0 -0.369223172497982 -68.12028648932264)"><path d="M-9.36 -112.77 C-6.56 -119.65, -5.39 -125.58, -0.74 -136.24 M-9.36 -112.77 C-7.16 -117.26, -5.8 -123.04, -0.74 -136.24" stroke="#2f9e44" stroke-width="1" fill="none"></path></g></g><mask id="mask-e5syOLfg98yXlMtRlB-AM"><rect x="0" y="0" fill="#fff" width="541.0941224355697" height="563.218185366848"></rect><rect x="422.40832791807577" y="246.85732589888016" fill="#000" width="35.15625" height="24" opacity="1"></rect></mask><g transform="translate(422.4083279180759 246.85732589888016) rotate(0 17.86515278927459 12)"><text x="17.578125" y="0" font-family="Cascadia, Segoe UI Emoji" font-size="20px" fill="#2f9e44" text-anchor="middle" style="white-space: pre;" direction="ltr" dominant-baseline="text-before-edge">0.6</text></g><g stroke-linecap="round" transform="translate(746.1165140882855 808.7241685524042) rotate(0 44.5 44.5)"><path d="M48.09 0.63 C55.97 0.93, 66.47 5.1, 72.94 9.88 C79.41 14.65, 84.4 21.79, 86.89 29.28 C89.39 36.76, 89.97 46.82, 87.92 54.79 C85.88 62.77, 80.58 71.53, 74.64 77.11 C68.7 82.69, 60.17 86.8, 52.26 88.29 C44.36 89.78, 34.47 88.93, 27.22 86.08 C19.98 83.23, 13.25 77.67, 8.8 71.19 C4.34 64.7, 0.97 55.2, 0.47 47.17 C-0.03 39.14, 1.97 30.07, 5.82 23 C9.67 15.93, 15.53 8.53, 23.57 4.76 C31.6 0.99, 47.76 0.62, 54.02 0.36 C60.28 0.09, 61.33 2.24, 61.14 3.15 M39.18 1.5 C46.68 0.01, 56.48 0.36, 63.57 3.98 C70.66 7.61, 77.59 16.01, 81.7 23.23 C85.81 30.45, 88.22 39.75, 88.23 47.29 C88.25 54.83, 86.05 62.08, 81.81 68.49 C77.57 74.89, 70.49 82.35, 62.81 85.7 C55.14 89.05, 43.98 90.04, 35.77 88.56 C27.57 87.09, 19.52 82.52, 13.58 76.86 C7.65 71.2, 1.86 62.13, 0.17 54.6 C-1.52 47.08, 0.78 39.21, 3.44 31.72 C6.11 24.23, 10.02 15.01, 16.15 9.69 C22.28 4.37, 36.28 1.03, 40.21 -0.19 C44.13 -1.4, 39.94 1.8, 39.71 2.39" stroke="#2f9e44" stroke-width="1" fill="none"></path></g><g transform="translate(773.072137325484 841.2579167896029) rotate(0 17.578125 12)"><text x="17.578125" y="0" font-family="Cascadia, Segoe UI Emoji" font-size="20px" fill="#2f9e44" text-anchor="middle" style="white-space: pre;" direction="ltr" dominant-baseline="text-before-edge">C2*</text></g><g stroke-linecap="round" transform="translate(53.6165140882855 817.4741685524042) rotate(0 44.5 44.5)"><path d="M31.53 1.86 C38.48 -1.07, 49.34 -1.01, 57.05 1.42 C64.76 3.84, 72.4 10.4, 77.79 16.42 C83.19 22.44, 88.34 29.67, 89.44 37.54 C90.54 45.41, 87.82 56.23, 84.4 63.64 C80.98 71.04, 75.51 77.82, 68.94 81.98 C62.37 86.14, 53.05 88.58, 44.97 88.6 C36.9 88.61, 27.44 86.49, 20.49 82.07 C13.54 77.64, 6.59 69.32, 3.27 62.06 C-0.05 54.81, -0.82 46.27, 0.57 38.54 C1.96 30.81, 4.79 22.17, 11.62 15.67 C18.45 9.16, 34.64 1.83, 41.53 -0.48 C48.42 -2.79, 52.84 1.09, 52.96 1.8 M52.57 0.33 C60.19 0.72, 67.19 5.8, 73.14 11.2 C79.09 16.59, 86.14 24.8, 88.28 32.69 C90.43 40.57, 88.63 51.1, 86 58.5 C83.36 65.89, 78.33 71.93, 72.47 77.07 C66.62 82.2, 58.66 88.17, 50.87 89.31 C43.09 90.45, 33.15 87.36, 25.78 83.89 C18.41 80.41, 11.1 74.86, 6.68 68.44 C2.26 62.03, -0.69 53.56, -0.73 45.39 C-0.78 37.22, 1.75 26.28, 6.4 19.43 C11.06 12.57, 19.67 7.6, 27.2 4.28 C34.73 0.95, 47.58 0.17, 51.6 -0.51 C55.61 -1.2, 51.48 -0.96, 51.28 0.17" stroke="#2f9e44" stroke-width="1" fill="none"></path></g><g transform="translate(80.5721373254841 850.0079167896029) rotate(0 17.578125 12)"><text x="17.578125" y="0" font-family="Cascadia, Segoe UI Emoji" font-size="20px" fill="#2f9e44" text-anchor="middle" style="white-space: pre;" direction="ltr" dominant-baseline="text-before-edge">C3*</text></g><g mask="url(#mask--sHlJniG6h68eIZUWq6Xc)" stroke-linecap="round"><g transform="translate(655.3896427741239 706.8296427108478) rotate(0 50.72924795106303 57.38333059804586)"><path d="M0 0 C35.67 40.7, 70.7 80.95, 101.46 114.77 M0 0 C35.91 42.03, 72.93 82.62, 101.46 114.77" stroke="#2f9e44" stroke-width="1" fill="none"></path></g><g transform="translate(655.3896427741239 706.8296427108478) rotate(0 50.72924795106303 57.38333059804586)"><path d="M79.43 102.94 C86.71 106.19, 93.34 109.64, 101.46 114.77 M79.43 102.94 C87.06 107.4, 95.65 111.14, 101.46 114.77" stroke="#2f9e44" stroke-width="1" fill="none"></path></g><g transform="translate(655.3896427741239 706.8296427108478) rotate(0 50.72924795106303 57.38333059804586)"><path d="M92.19 91.55 C94.91 98.76, 96.98 106.28, 101.46 114.77 M92.19 91.55 C95.23 99.97, 99.26 107.79, 101.46 114.77" stroke="#2f9e44" stroke-width="1" fill="none"></path></g></g><mask id="mask--sHlJniG6h68eIZUWq6Xc"><rect x="0" y="0" fill="#fff" width="856.84813867625" height="921.5963039069395"></rect><rect x="688.5407657251869" y="752.2129733088935" fill="#000" width="35.15625" height="24" opacity="1"></rect></mask><g transform="translate(688.5407657251869 752.2129733088937) rotate(0 17.578125 12)"><text x="17.578125" y="0" font-family="Cascadia, Segoe UI Emoji" font-size="20px" fill="#2f9e44" text-anchor="middle" style="white-space: pre;" direction="ltr" dominant-baseline="text-before-edge">0.8</text></g><g mask="url(#mask-ZnhENzC3HdQ_y9BmY8ool)" stroke-linecap="round"><g transform="translate(238.31339223155726 687.9617436195772) rotate(0 -58.27247628524947 67.57147284441177)"><path d="M0 0 C-38.26 44.64, -80.87 94.72, -116.54 135.14 M0 0 C-39.6 46.16, -78.13 92.43, -116.54 135.14" stroke="#2f9e44" stroke-width="1" fill="none"></path></g><g transform="translate(238.31339223155726 687.9617436195772) rotate(0 -58.27247628524947 67.57147284441177)"><path d="M-107.43 111.86 C-109.45 117.93, -115.24 129.66, -116.54 135.14 M-107.43 111.86 C-110.92 120.11, -113.17 128.59, -116.54 135.14" stroke="#2f9e44" stroke-width="1" fill="none"></path></g><g transform="translate(238.31339223155726 687.9617436195772) rotate(0 -58.27247628524947 67.57147284441177)"><path d="M-94.6 123.17 C-101.08 125.39, -111.26 133.25, -116.54 135.14 M-94.6 123.17 C-102.44 127.62, -109.02 132.28, -116.54 135.14" stroke="#2f9e44" stroke-width="1" fill="none"></path></g></g><mask id="mask-ZnhENzC3HdQ_y9BmY8ool"><rect x="0" y="0" fill="#fff" width="454.8583448020562" height="923.1046893084008"></rect><rect x="162.4627909463078" y="743.533216463989" fill="#000" width="35.15625" height="24" opacity="1"></rect></mask><g transform="translate(162.4627909463078 743.533216463989) rotate(0 17.578125 12.000000000000028)"><text x="17.578125" y="0" font-family="Cascadia, Segoe UI Emoji" font-size="20px" fill="#2f9e44" text-anchor="middle" style="white-space: pre;" direction="ltr" dominant-baseline="text-before-edge">0.5</text></g><g mask="url(#mask-2kzxumvRcXz8aGhMKexJ8)" stroke-linecap="round"><g transform="translate(400.6165140882855 124.74513696990678) rotate(0 36.875 -50.25805269370467)"><path d="M-0.36 -1.15 C-1.55 -11.8, -14.8 -47.51, -7.73 -64.3 C-0.65 -81.08, 27.2 -101.55, 42.12 -101.88 C57.03 -102.22, 75.2 -83.57, 81.78 -66.32 C88.36 -49.07, 81.33 -9.8, 81.59 1.6 M1.66 0.86 C0.44 -10.12, -14.83 -48.8, -8.14 -66.24 C-1.44 -83.68, 26.84 -103.93, 41.81 -103.78 C56.77 -103.62, 74.74 -82.89, 81.65 -65.32 C88.57 -47.75, 83.32 -9.39, 83.3 1.66" stroke="#1e1e1e" stroke-width="1" fill="none"></path></g><g transform="translate(400.6165140882855 124.74513696990678) rotate(0 36.875 -50.25805269370467)"><path d="M76.17 -22.3 C75.99 -14.44, 80.31 -8.57, 83.3 1.66 M76.17 -22.3 C77.92 -13.9, 82.05 -4.58, 83.3 1.66" stroke="#1e1e1e" stroke-width="1" fill="none"></path></g><g transform="translate(400.6165140882855 124.74513696990678) rotate(0 36.875 -50.25805269370467)"><path d="M93.24 -21.28 C88.7 -13.73, 88.65 -8.13, 83.3 1.66 M93.24 -21.28 C88.65 -13.29, 86.43 -4.35, 83.3 1.66" stroke="#1e1e1e" stroke-width="1" fill="none"></path></g></g><mask id="mask-2kzxumvRcXz8aGhMKexJ8"><rect x="0" y="0" fill="#fff" width="591.8665140882855" height="329.71930552231095"></rect><rect x="424.2883890882854" y="10" fill="#000" width="35.15625" height="24" opacity="1"></rect></mask><g transform="translate(424.2883890882854 10) rotate(0 14.028445467873837 63.688989081057315)"><text x="17.578125" y="0" font-family="Cascadia, Segoe UI Emoji" font-size="20px" fill="#1e1e1e" text-anchor="middle" style="white-space: pre;" direction="ltr" dominant-baseline="text-before-edge">1.0</text></g><g mask="url(#mask-bjqC1oM412QU8qfUONkWa)" stroke-linecap="round"><g transform="translate(795.4161936204115 968.514515920797) rotate(147.12104657535696 36.875 -50.258052693704656)"><path d="M-0.94 -0.02 C-2.4 -10.76, -15.68 -48.09, -8.85 -65.21 C-2.01 -82.33, 25.06 -102.69, 40.1 -102.75 C55.13 -102.82, 74.34 -82.92, 81.38 -65.61 C88.43 -48.3, 82.06 -10.08, 82.37 1.12 M0.77 -1.08 C-0.85 -11.6, -16.78 -47.24, -9.84 -63.97 C-2.91 -80.7, 27.24 -100.78, 42.39 -101.44 C57.53 -102.09, 74.64 -84.95, 81.04 -67.89 C87.45 -50.83, 80.77 -11.04, 80.83 0.92" stroke="#1e1e1e" stroke-width="1" fill="none"></path></g><g transform="translate(795.4161936204115 968.514515920797) rotate(147.12104657535696 36.875 -50.258052693704656)"><path d="M74.01 -23.13 C75.82 -16.16, 76.92 -10.85, 80.83 0.92 M74.01 -23.13 C75.71 -16.89, 78.49 -9.3, 80.83 0.92" stroke="#1e1e1e" stroke-width="1" fill="none"></path></g><g transform="translate(795.4161936204115 968.514515920797) rotate(147.12104657535696 36.875 -50.258052693704656)"><path d="M91.06 -21.89 C87.87 -15.42, 83.95 -10.47, 80.83 0.92 M91.06 -21.89 C87.67 -15.94, 85.34 -8.73, 80.83 0.92" stroke="#1e1e1e" stroke-width="1" fill="none"></path></g></g><mask id="mask-bjqC1oM412QU8qfUONkWa"><rect x="0" y="0" fill="#fff" width="986.6661936204115" height="1173.4886844732011"></rect><rect x="839.5323122171039" y="952.7111700726334" fill="#000" width="35.15625" height="24" opacity="1"></rect></mask><g transform="translate(838.6570802649641 951.847975467389) rotate(0 -6.676153432321485 -34.15223463012785)"><text x="17.578125" y="0" font-family="Cascadia, Segoe UI Emoji" font-size="20px" fill="#1e1e1e" text-anchor="middle" style="white-space: pre;" direction="ltr" dominant-baseline="text-before-edge">1.0</text></g><g mask="url(#mask-iBrw8I_wOqQy8QMf8NP8Q)" stroke-linecap="round"><g transform="translate(22.91619362041149 974.7645159207968) rotate(212.941360352737 36.875 -50.258052693704656)"><path d="M1.04 -0.64 C-0.74 -11.17, -16.49 -47.37, -9.9 -64.21 C-3.32 -81.04, 25.12 -101.51, 40.53 -101.67 C55.95 -101.82, 75.41 -82.59, 82.58 -65.14 C89.75 -47.68, 83.7 -8.16, 83.56 3.07 M0.12 1.64 C-1.38 -9.17, -14.95 -48.59, -7.8 -66.1 C-0.64 -83.61, 27.94 -103.26, 43.05 -103.44 C58.16 -103.62, 76.27 -85.06, 82.86 -67.17 C89.46 -49.28, 82.67 -7.5, 82.64 3.9" stroke="#1e1e1e" stroke-width="1" fill="none"></path></g><g transform="translate(22.91619362041149 974.7645159207968) rotate(212.941360352737 36.875 -50.258052693704656)"><path d="M75.92 -20.18 C77.1 -13.39, 81.34 -3.89, 82.64 3.9 M75.92 -20.18 C79.44 -10.15, 80.53 -1.45, 82.64 3.9" stroke="#1e1e1e" stroke-width="1" fill="none"></path></g><g transform="translate(22.91619362041149 974.7645159207968) rotate(212.941360352737 36.875 -50.258052693704656)"><path d="M92.97 -18.87 C87.95 -12.41, 85.98 -3.39, 82.64 3.9 M92.97 -18.87 C89.84 -9.21, 84.28 -1.02, 82.64 3.9" stroke="#1e1e1e" stroke-width="1" fill="none"></path></g></g><mask id="mask-iBrw8I_wOqQy8QMf8NP8Q"><rect x="0" y="0" fill="#fff" width="214.1661936204115" height="1179.738684473201"></rect><rect x="10" y="954.1760306699372" fill="#000" width="35.15625" height="24" opacity="1"></rect></mask><g transform="translate(10.493720573040946 955.2938297113475) rotate(0 49.709575862435116 -30.30145292333458)"><text x="17.578125" y="0" font-family="Cascadia, Segoe UI Emoji" font-size="20px" fill="#1e1e1e" text-anchor="middle" style="white-space: pre;" direction="ltr" dominant-baseline="text-before-edge">1.0</text></g></svg>