<svg version="1.1" xmlns="http://www.w3.org/2000/svg" viewBox="0 0 801.5 826.5" width="801.5" height="826.5" filter="invert(93%) hue-rotate(180deg)">
  <!-- svg-source:excalidraw -->
  
  <defs>
    <style class="style-fonts">
      @font-face {
        font-family: "Virgil";
        src: url("https://excalidraw.com/Virgil.woff2");
      }
      @font-face {
        font-family: "Cascadia";
        src: url("https://excalidraw.com/Cascadia.woff2");
      }
      @font-face {
        font-family: "Assistant";
        src: url("https://excalidraw.com/Assistant-Regular.woff2");
      }
    </style>
    
  </defs>
  <rect x="0" y="0" width="801.5" height="826.5" fill="#ffffff"></rect><g stroke-linecap="round" transform="translate(353 240.25) rotate(0 44.5 44.5)"><path d="M28.1 3.42 C34.76 0.11, 44.92 -0.55, 52.91 0.99 C60.89 2.53, 70.23 6.94, 75.99 12.67 C81.75 18.39, 85.88 27.39, 87.47 35.34 C89.05 43.3, 88.18 52.95, 85.49 60.4 C82.81 67.86, 77.74 75.46, 71.35 80.06 C64.96 84.65, 55 87.41, 47.15 87.97 C39.29 88.54, 31.31 87.04, 24.23 83.46 C17.15 79.88, 8.6 73.52, 4.68 66.48 C0.75 59.45, 0.02 49.23, 0.69 41.25 C1.35 33.27, 3.36 25.09, 8.68 18.61 C14 12.13, 27.73 5.09, 32.6 2.34 C37.48 -0.4, 37.81 1.69, 37.92 2.14 M27.17 3.18 C33.66 -0.37, 43.24 -1.44, 51.33 0.04 C59.43 1.52, 69.49 6.57, 75.73 12.06 C81.97 17.56, 86.85 25.4, 88.78 33 C90.71 40.59, 90.11 50.17, 87.31 57.62 C84.52 65.07, 78.14 72.75, 72 77.72 C65.87 82.69, 58.48 86.2, 50.51 87.45 C42.55 88.69, 31.46 88.36, 24.22 85.18 C16.98 81.99, 11.23 75.57, 7.08 68.33 C2.93 61.08, -0.62 49.99, -0.67 41.7 C-0.71 33.41, 1.95 25.02, 6.82 18.6 C11.69 12.18, 25.17 5.71, 28.56 3.18 C31.94 0.65, 27.03 2.74, 27.12 3.41" stroke="#e03131" stroke-width="1" fill="none"></path></g><g transform="translate(385.81499823719855 272.78374823719867) rotate(0 11.71875 12)"><text x="11.71875" y="0" font-family="Cascadia, Segoe UI Emoji" font-size="20px" fill="#e03131" text-anchor="middle" style="white-space: pre;" direction="ltr" dominant-baseline="text-before-edge">C1</text></g><g stroke-linecap="round" transform="translate(538.25 536) rotate(0 44.5 44.5)"><path d="M46.63 0.14 C54.4 -0.1, 64.67 3.7, 71.17 8.55 C77.67 13.41, 82.96 21.65, 85.64 29.28 C88.31 36.91, 88.82 46.55, 87.23 54.31 C85.64 62.08, 81.74 70.42, 76.1 75.87 C70.47 81.33, 61.09 85.33, 53.41 87.03 C45.73 88.72, 37.56 88.59, 30.01 86.05 C22.47 83.51, 13.02 78.19, 8.14 71.78 C3.26 65.37, 1.21 55.56, 0.73 47.59 C0.26 39.62, 1.61 30.84, 5.29 23.96 C8.98 17.09, 14.78 10.1, 22.85 6.33 C30.92 2.57, 48 2.06, 53.72 1.35 C59.43 0.65, 57.57 1.39, 57.13 2.11 M37.68 -0.26 C45.35 -1.81, 56.79 0.98, 64.41 4.43 C72.03 7.88, 79.2 13.83, 83.39 20.45 C87.58 27.07, 89.93 36.29, 89.56 44.15 C89.19 52.01, 85.48 60.98, 81.17 67.6 C76.86 74.23, 71.02 80.27, 63.69 83.89 C56.37 87.51, 45.21 90.16, 37.23 89.31 C29.25 88.47, 21.83 84.52, 15.79 78.84 C9.75 73.17, 3.46 63.25, 0.97 55.26 C-1.51 47.26, -1.78 38.38, 0.87 30.89 C3.53 23.4, 10.71 15.53, 16.91 10.3 C23.1 5.08, 34.41 1.11, 38.05 -0.45 C41.68 -2, 38.29 0.12, 38.73 0.96" stroke="#e03131" stroke-width="1" fill="none"></path></g><g transform="translate(571.0649982371987 568.5337482371987) rotate(0 11.71875 12)"><text x="11.71875" y="0" font-family="Cascadia, Segoe UI Emoji" font-size="20px" fill="#e03131" text-anchor="middle" style="white-space: pre;" direction="ltr" dominant-baseline="text-before-edge">C2</text></g><g stroke-linecap="round" transform="translate(181 520) rotate(0 44.5 44.5)"><path d="M55.72 1.24 C63.3 2.61, 71.3 8.77, 76.59 14.77 C81.88 20.77, 85.98 29.41, 87.47 37.22 C88.96 45.03, 88.61 54.47, 85.54 61.62 C82.47 68.77, 75.5 75.62, 69.06 80.14 C62.62 84.65, 54.93 88.21, 46.9 88.72 C38.88 89.22, 27.84 87.27, 20.91 83.16 C13.98 79.05, 8.77 71.2, 5.32 64.06 C1.88 56.91, -0.49 48.08, 0.25 40.3 C0.99 32.52, 4.58 23.59, 9.77 17.35 C14.96 11.12, 23.37 5.53, 31.4 2.88 C39.43 0.23, 53.12 1.13, 57.94 1.44 C62.76 1.75, 60.52 3.93, 60.34 4.75 M41.78 0.36 C49.68 -0.86, 59.54 1.21, 66.55 4.79 C73.57 8.38, 80.22 15.04, 83.86 21.87 C87.51 28.71, 88.8 37.85, 88.42 45.78 C88.05 53.72, 86.31 62.61, 81.59 69.46 C76.87 76.3, 67.63 83.57, 60.09 86.85 C52.55 90.13, 44.25 91.1, 36.35 89.13 C28.46 87.15, 18.76 80.9, 12.72 75.02 C6.67 69.15, 1.55 61.51, 0.06 53.87 C-1.42 46.23, 1.01 36.78, 3.8 29.19 C6.59 21.61, 10.65 13.25, 16.81 8.36 C22.97 3.47, 36.51 1.1, 40.76 -0.16 C45.01 -1.41, 42.11 0.01, 42.32 0.85" stroke="#e03131" stroke-width="1" fill="none"></path></g><g transform="translate(213.81499823719867 552.5337482371986) rotate(0 11.71875 12)"><text x="11.71875" y="0" font-family="Cascadia, Segoe UI Emoji" font-size="20px" fill="#e03131" text-anchor="middle" style="white-space: pre;" direction="ltr" dominant-baseline="text-before-edge">C3</text></g><g mask="url(#mask-r2BdLcMnM8dCYqsGGiM5T)" stroke-linecap="round"><g transform="translate(428.75065654817877 324.19485347048175) rotate(0 64.73530703235423 108.99147051300062)"><path d="M0 0 C45.93 78.37, 96.05 159.34, 129.47 217.98 M0 0 C27.14 44.55, 54.71 89.68, 129.47 217.98" stroke="#e03131" stroke-width="1" fill="none"></path></g><g transform="translate(428.75065654817877 324.19485347048175) rotate(0 64.73530703235423 108.99147051300062)"><path d="M110.22 202.04 C115.54 206.08, 125.85 213.2, 129.47 217.98 M110.22 202.04 C113.86 205.23, 118.76 208.48, 129.47 217.98" stroke="#e03131" stroke-width="1" fill="none"></path></g><g transform="translate(428.75065654817877 324.19485347048175) rotate(0 64.73530703235423 108.99147051300062)"><path d="M124.97 193.39 C124.88 200.63, 129.78 210.92, 129.47 217.98 M124.97 193.39 C125.59 198.46, 127.43 203.51, 129.47 217.98" stroke="#e03131" stroke-width="1" fill="none"></path></g></g><mask id="mask-r2BdLcMnM8dCYqsGGiM5T"><rect x="0" y="0" fill="#fff" width="658.2212706128872" height="642.177794496483"></rect><rect x="475.90783858053305" y="421.1863239834824" fill="#000" width="35.15625" height="24" opacity="1"></rect></mask><g transform="translate(475.90783858053305 421.18632398348234) rotate(0 17.578124999999943 12)"><text x="17.578125" y="0" font-family="Cascadia, Segoe UI Emoji" font-size="20px" fill="#e03131" text-anchor="middle" style="white-space: pre;" direction="ltr" dominant-baseline="text-before-edge">0.4</text></g><g mask="url(#mask-DJoSnx8dmhexyZSpFXJLB)" stroke-linecap="round"><g transform="translate(537.8974789460011 572.0525739038656) rotate(0 -134.989940591618 4.454712380412417)"><path d="M0 0 C-83.47 0.52, -170.73 4.27, -269.98 8.91 M0 0 C-96.72 3.17, -193.63 7.19, -269.98 8.91" stroke="#e03131" stroke-width="1" fill="none"></path></g><g transform="translate(537.8974789460011 572.0525739038656) rotate(0 -134.989940591618 4.454712380412417)"><path d="M-246.74 -0.3 C-252.57 1.87, -263.24 5.99, -269.98 8.91 M-246.74 -0.3 C-254.62 2.96, -262.75 7.32, -269.98 8.91" stroke="#e03131" stroke-width="1" fill="none"></path></g><g transform="translate(537.8974789460011 572.0525739038656) rotate(0 -134.989940591618 4.454712380412417)"><path d="M-246.26 16.79 C-252.09 13.6, -262.91 12.36, -269.98 8.91 M-246.26 16.79 C-254.25 13.91, -262.55 12.12, -269.98 8.91" stroke="#e03131" stroke-width="1" fill="none"></path></g></g><mask id="mask-DJoSnx8dmhexyZSpFXJLB"><rect x="0" y="0" fill="#fff" width="907.8773601292371" height="680.9619986646903"></rect><rect x="385.3294133543833" y="564.5072862842779" fill="#000" width="35.15625" height="24" opacity="1"></rect></mask><g transform="translate(385.3294133543832 564.5072862842779) rotate(0 17.578124999999943 12.000000000000028)"><text x="17.578125" y="0" font-family="Cascadia, Segoe UI Emoji" font-size="20px" fill="#e03131" text-anchor="middle" style="white-space: pre;" direction="ltr" dominant-baseline="text-before-edge">0.2</text></g><g mask="url(#mask-VE8k6z_a74CV1mvsra_bQ)" stroke-linecap="round"><g transform="translate(239.7460307926001 518.8486884299905) rotate(0 66.19703624050021 -98.16068599090244)"><path d="M0 0 C25.15 -40.59, 55.68 -83.35, 132.39 -196.32 M0 0 C39.5 -58.01, 79.1 -118.22, 132.39 -196.32" stroke="#e03131" stroke-width="1" fill="none"></path></g><g transform="translate(239.7460307926001 518.8486884299905) rotate(0 66.19703624050021 -98.16068599090244)"><path d="M126.3 -172.08 C125.54 -176.46, 129.88 -183.12, 132.39 -196.32 M126.3 -172.08 C128.74 -178.35, 130.42 -187.18, 132.39 -196.32" stroke="#e03131" stroke-width="1" fill="none"></path></g><g transform="translate(239.7460307926001 518.8486884299905) rotate(0 66.19703624050021 -98.16068599090244)"><path d="M112.14 -181.67 C114.45 -183.99, 121.78 -188.62, 132.39 -196.32 M112.14 -181.67 C118.88 -185.06, 124.81 -191.01, 132.39 -196.32" stroke="#e03131" stroke-width="1" fill="none"></path></g></g><mask id="mask-VE8k6z_a74CV1mvsra_bQ"><rect x="0" y="0" fill="#fff" width="472.1401032736005" height="815.1700604117954"></rect><rect x="288.3649420331003" y="408.688002439088" fill="#000" width="35.15625" height="24" opacity="1"></rect></mask><g transform="translate(288.3649420331003 408.6880024390881) rotate(0 17.578125 12)"><text x="17.578125" y="0" font-family="Cascadia, Segoe UI Emoji" font-size="20px" fill="#e03131" text-anchor="middle" style="white-space: pre;" direction="ltr" dominant-baseline="text-before-edge">0.5</text></g><g stroke-linecap="round" transform="translate(353.75 10) rotate(0 44.5 44.5)"><path d="M37.95 0.11 C45.38 -1.76, 55.43 0.09, 62.78 3.33 C70.13 6.56, 77.58 12.74, 82.06 19.51 C86.54 26.29, 89.53 35.82, 89.66 43.98 C89.8 52.14, 87.32 61.85, 82.85 68.49 C78.39 75.13, 70.32 80.51, 62.86 83.8 C55.41 87.08, 45.9 88.94, 38.13 88.2 C30.37 87.45, 22.38 84.58, 16.27 79.34 C10.15 74.11, 3.83 64.5, 1.45 56.78 C-0.94 49.06, -0.24 40.55, 1.97 33.03 C4.19 25.52, 7.99 17.12, 14.73 11.67 C21.47 6.21, 36.91 2.15, 42.4 0.31 C47.89 -1.53, 47.5 -0.01, 47.68 0.62 M31.69 2.63 C38.66 -0.37, 47.74 -1.53, 55.38 0.32 C63.02 2.18, 72.15 7.58, 77.54 13.75 C82.93 19.92, 86.31 29.31, 87.71 37.35 C89.11 45.39, 89.04 54.88, 85.95 62 C82.85 69.11, 75.81 75.77, 69.12 80.06 C62.44 84.34, 54.03 87.1, 45.85 87.72 C37.66 88.35, 27.05 87.7, 20 83.78 C12.96 79.86, 7.02 71.61, 3.58 64.19 C0.13 56.77, -1.96 47.2, -0.64 39.26 C0.67 31.32, 6.34 22.89, 11.46 16.57 C16.58 10.24, 26.67 3.36, 30.05 1.32 C33.44 -0.73, 31.65 3.41, 31.78 4.3" stroke="#2f9e44" stroke-width="1" fill="none"></path></g><g transform="translate(380.70562323719867 42.53374823719864) rotate(0 17.578125 12)"><text x="17.578125" y="0" font-family="Cascadia, Segoe UI Emoji" font-size="20px" fill="#2f9e44" text-anchor="middle" style="white-space: pre;" direction="ltr" dominant-baseline="text-before-edge">C1*</text></g><g mask="url(#mask-e5syOLfg98yXlMtRlB-AM)" stroke-linecap="round"><g transform="translate(396.73916200228825 237.00344383579863) rotate(0 -0.369223172497982 -68.12028648932264)"><path d="M0 0 C1.53 -34.16, 0.43 -67.39, -0.74 -136.24 M0 0 C-0.45 -30.97, -1.28 -63.2, -0.74 -136.24" stroke="#2f9e44" stroke-width="1" fill="none"></path></g><g transform="translate(396.73916200228825 237.00344383579863) rotate(0 -0.369223172497982 -68.12028648932264)"><path d="M7.74 -112.72 C6.4 -119.54, 3.42 -125.48, -0.74 -136.24 M7.74 -112.72 C5.93 -117.27, 3.28 -123.06, -0.74 -136.24" stroke="#2f9e44" stroke-width="1" fill="none"></path></g><g transform="translate(396.73916200228825 237.00344383579863) rotate(0 -0.369223172497982 -68.12028648932264)"><path d="M-9.36 -112.77 C-6.56 -119.65, -5.39 -125.58, -0.74 -136.24 M-9.36 -112.77 C-7.16 -117.26, -5.8 -123.04, -0.74 -136.24" stroke="#2f9e44" stroke-width="1" fill="none"></path></g></g><mask id="mask-e5syOLfg98yXlMtRlB-AM"><rect x="0" y="0" fill="#fff" width="497.4776083472842" height="473.2440168144439"></rect><rect x="378.7918138297904" y="156.88315734647597" fill="#000" width="35.15625" height="24" opacity="1"></rect></mask><g transform="translate(378.79181382979027 156.88315734647597) rotate(0 17.86515278927459 12)"><text x="17.578125" y="0" font-family="Cascadia, Segoe UI Emoji" font-size="20px" fill="#2f9e44" text-anchor="middle" style="white-space: pre;" direction="ltr" dominant-baseline="text-before-edge">0.6</text></g><g stroke-linecap="round" transform="translate(702.5 718.75) rotate(0 44.5 44.5)"><path d="M48.09 0.63 C55.97 0.93, 66.47 5.1, 72.94 9.88 C79.41 14.65, 84.4 21.79, 86.89 29.28 C89.39 36.76, 89.97 46.82, 87.92 54.79 C85.88 62.77, 80.58 71.53, 74.64 77.11 C68.7 82.69, 60.17 86.8, 52.26 88.29 C44.36 89.78, 34.47 88.93, 27.22 86.08 C19.98 83.23, 13.25 77.67, 8.8 71.19 C4.34 64.7, 0.97 55.2, 0.47 47.17 C-0.03 39.14, 1.97 30.07, 5.82 23 C9.67 15.93, 15.53 8.53, 23.57 4.76 C31.6 0.99, 47.76 0.62, 54.02 0.36 C60.28 0.09, 61.33 2.24, 61.14 3.15 M39.18 1.5 C46.68 0.01, 56.48 0.36, 63.57 3.98 C70.66 7.61, 77.59 16.01, 81.7 23.23 C85.81 30.45, 88.22 39.75, 88.23 47.29 C88.25 54.83, 86.05 62.08, 81.81 68.49 C77.57 74.89, 70.49 82.35, 62.81 85.7 C55.14 89.05, 43.98 90.04, 35.77 88.56 C27.57 87.09, 19.52 82.52, 13.58 76.86 C7.65 71.2, 1.86 62.13, 0.17 54.6 C-1.52 47.08, 0.78 39.21, 3.44 31.72 C6.11 24.23, 10.02 15.01, 16.15 9.69 C22.28 4.37, 36.28 1.03, 40.21 -0.19 C44.13 -1.4, 39.94 1.8, 39.71 2.39" stroke="#2f9e44" stroke-width="1" fill="none"></path></g><g transform="translate(729.4556232371986 751.2837482371987) rotate(0 17.578125 12)"><text x="17.578125" y="0" font-family="Cascadia, Segoe UI Emoji" font-size="20px" fill="#2f9e44" text-anchor="middle" style="white-space: pre;" direction="ltr" dominant-baseline="text-before-edge">C2*</text></g><g stroke-linecap="round" transform="translate(10 727.5) rotate(0 44.5 44.5)"><path d="M31.53 1.86 C38.48 -1.07, 49.34 -1.01, 57.05 1.42 C64.76 3.84, 72.4 10.4, 77.79 16.42 C83.19 22.44, 88.34 29.67, 89.44 37.54 C90.54 45.41, 87.82 56.23, 84.4 63.64 C80.98 71.04, 75.51 77.82, 68.94 81.98 C62.37 86.14, 53.05 88.58, 44.97 88.6 C36.9 88.61, 27.44 86.49, 20.49 82.07 C13.54 77.64, 6.59 69.32, 3.27 62.06 C-0.05 54.81, -0.82 46.27, 0.57 38.54 C1.96 30.81, 4.79 22.17, 11.62 15.67 C18.45 9.16, 34.64 1.83, 41.53 -0.48 C48.42 -2.79, 52.84 1.09, 52.96 1.8 M52.57 0.33 C60.19 0.72, 67.19 5.8, 73.14 11.2 C79.09 16.59, 86.14 24.8, 88.28 32.69 C90.43 40.57, 88.63 51.1, 86 58.5 C83.36 65.89, 78.33 71.93, 72.47 77.07 C66.62 82.2, 58.66 88.17, 50.87 89.31 C43.09 90.45, 33.15 87.36, 25.78 83.89 C18.41 80.41, 11.1 74.86, 6.68 68.44 C2.26 62.03, -0.69 53.56, -0.73 45.39 C-0.78 37.22, 1.75 26.28, 6.4 19.43 C11.06 12.57, 19.67 7.6, 27.2 4.28 C34.73 0.95, 47.58 0.17, 51.6 -0.51 C55.61 -1.2, 51.48 -0.96, 51.28 0.17" stroke="#2f9e44" stroke-width="1" fill="none"></path></g><g transform="translate(36.95562323719861 760.0337482371987) rotate(0 17.578125 12)"><text x="17.578125" y="0" font-family="Cascadia, Segoe UI Emoji" font-size="20px" fill="#2f9e44" text-anchor="middle" style="white-space: pre;" direction="ltr" dominant-baseline="text-before-edge">C3*</text></g><g mask="url(#mask--sHlJniG6h68eIZUWq6Xc)" stroke-linecap="round"><g transform="translate(611.7731286858384 616.8554741584436) rotate(0 50.72924795106303 57.38333059804586)"><path d="M0 0 C35.67 40.7, 70.7 80.95, 101.46 114.77 M0 0 C35.91 42.03, 72.93 82.62, 101.46 114.77" stroke="#2f9e44" stroke-width="1" fill="none"></path></g><g transform="translate(611.7731286858384 616.8554741584436) rotate(0 50.72924795106303 57.38333059804586)"><path d="M79.43 102.94 C86.71 106.19, 93.34 109.64, 101.46 114.77 M79.43 102.94 C87.06 107.4, 95.65 111.14, 101.46 114.77" stroke="#2f9e44" stroke-width="1" fill="none"></path></g><g transform="translate(611.7731286858384 616.8554741584436) rotate(0 50.72924795106303 57.38333059804586)"><path d="M92.19 91.55 C94.91 98.76, 96.98 106.28, 101.46 114.77 M92.19 91.55 C95.23 99.97, 99.26 107.79, 101.46 114.77" stroke="#2f9e44" stroke-width="1" fill="none"></path></g></g><mask id="mask--sHlJniG6h68eIZUWq6Xc"><rect x="0" y="0" fill="#fff" width="813.2316245879645" height="831.6221353545353"></rect><rect x="644.9242516369013" y="662.2388047564895" fill="#000" width="35.15625" height="24" opacity="1"></rect></mask><g transform="translate(644.9242516369013 662.2388047564896) rotate(0 17.578125 12)"><text x="17.578125" y="0" font-family="Cascadia, Segoe UI Emoji" font-size="20px" fill="#2f9e44" text-anchor="middle" style="white-space: pre;" direction="ltr" dominant-baseline="text-before-edge">0.8</text></g><g mask="url(#mask-ZnhENzC3HdQ_y9BmY8ool)" stroke-linecap="round"><g transform="translate(194.69687814327176 597.9875750671731) rotate(0 -58.27247628524947 67.57147284441177)"><path d="M0 0 C-38.26 44.64, -80.87 94.72, -116.54 135.14 M0 0 C-39.6 46.16, -78.13 92.43, -116.54 135.14" stroke="#2f9e44" stroke-width="1" fill="none"></path></g><g transform="translate(194.69687814327176 597.9875750671731) rotate(0 -58.27247628524947 67.57147284441177)"><path d="M-107.43 111.86 C-109.45 117.93, -115.24 129.66, -116.54 135.14 M-107.43 111.86 C-110.92 120.11, -113.17 128.59, -116.54 135.14" stroke="#2f9e44" stroke-width="1" fill="none"></path></g><g transform="translate(194.69687814327176 597.9875750671731) rotate(0 -58.27247628524947 67.57147284441177)"><path d="M-94.6 123.17 C-101.08 125.39, -111.26 133.25, -116.54 135.14 M-94.6 123.17 C-102.44 127.62, -109.02 132.28, -116.54 135.14" stroke="#2f9e44" stroke-width="1" fill="none"></path></g></g><mask id="mask-ZnhENzC3HdQ_y9BmY8ool"><rect x="0" y="0" fill="#fff" width="411.2418307137707" height="833.1305207559967"></rect><rect x="118.84627685802229" y="653.5590479115849" fill="#000" width="35.15625" height="24" opacity="1"></rect></mask><g transform="translate(118.84627685802229 653.5590479115849) rotate(0 17.578125 12.000000000000028)"><text x="17.578125" y="0" font-family="Cascadia, Segoe UI Emoji" font-size="20px" fill="#2f9e44" text-anchor="middle" style="white-space: pre;" direction="ltr" dominant-baseline="text-before-edge">0.5</text></g></svg>