<svg version="1.1" xmlns="http://www.w3.org/2000/svg" viewBox="0 0 1093.1844502423824 990.6401821842103" width="1093.1844502423824" height="990.6401821842103" filter="invert(93%) hue-rotate(180deg)">
  <!-- svg-source:excalidraw -->
  
  <defs>
    <style class="style-fonts">
      @font-face {
        font-family: "Virgil";
        src: url("https://excalidraw.com/Virgil.woff2");
      }
      @font-face {
        font-family: "Cascadia";
        src: url("https://excalidraw.com/Cascadia.woff2");
      }
      @font-face {
        font-family: "Assistant";
        src: url("https://excalidraw.com/Assistant-Regular.woff2");
      }
    </style>
    
  </defs>
  <rect x="0" y="0" width="1093.1844502423824" height="990.6401821842103" fill="#ffffff"></rect><g stroke-linecap="round" transform="translate(441.87939864760574 10) rotate(0 44.5 42.5)"><path d="M89 42.5 C89 44.52, 88.85 46.55, 88.55 48.55 C88.25 50.54, 87.79 52.54, 87.2 54.47 C86.6 56.41, 85.86 58.32, 84.98 60.16 C84.1 61.99, 83.08 63.78, 81.94 65.48 C80.79 67.17, 79.51 68.81, 78.13 70.33 C76.75 71.86, 75.24 73.3, 73.64 74.62 C72.05 75.94, 70.33 77.16, 68.56 78.25 C66.78 79.34, 64.91 80.32, 62.99 81.16 C61.07 82, 59.06 82.71, 57.04 83.28 C55.01 83.85, 52.92 84.28, 50.83 84.57 C48.74 84.85, 46.61 85, 44.5 85 C42.39 85, 40.26 84.85, 38.17 84.57 C36.08 84.28, 33.99 83.85, 31.96 83.28 C29.94 82.71, 27.93 82, 26.01 81.16 C24.09 80.32, 22.22 79.34, 20.44 78.25 C18.67 77.16, 16.95 75.94, 15.36 74.62 C13.76 73.3, 12.25 71.86, 10.87 70.33 C9.49 68.81, 8.21 67.17, 7.06 65.48 C5.92 63.78, 4.9 61.99, 4.02 60.16 C3.14 58.32, 2.4 56.41, 1.8 54.47 C1.21 52.54, 0.75 50.54, 0.45 48.55 C0.15 46.55, 0 44.52, 0 42.5 C0 40.48, 0.15 38.45, 0.45 36.45 C0.75 34.46, 1.21 32.46, 1.8 30.53 C2.4 28.59, 3.14 26.68, 4.02 24.84 C4.9 23.01, 5.92 21.22, 7.06 19.52 C8.21 17.83, 9.49 16.19, 10.87 14.67 C12.25 13.14, 13.76 11.7, 15.36 10.38 C16.95 9.06, 18.67 7.84, 20.44 6.75 C22.22 5.66, 24.09 4.68, 26.01 3.84 C27.93 3, 29.94 2.29, 31.96 1.72 C33.99 1.15, 36.08 0.72, 38.17 0.43 C40.26 0.15, 42.39 0, 44.5 0 C46.61 0, 48.74 0.15, 50.83 0.43 C52.92 0.72, 55.01 1.15, 57.04 1.72 C59.06 2.29, 61.07 3, 62.99 3.84 C64.91 4.68, 66.78 5.66, 68.56 6.75 C70.33 7.84, 72.05 9.06, 73.64 10.38 C75.24 11.7, 76.75 13.14, 78.13 14.67 C79.51 16.19, 80.79 17.83, 81.94 19.52 C83.08 21.22, 84.1 23.01, 84.98 24.84 C85.86 26.68, 86.6 28.59, 87.2 30.53 C87.79 32.46, 88.25 34.46, 88.55 36.45 C88.85 38.45, 88.92 41.49, 89 42.5 C89.08 43.51, 89.08 41.49, 89 42.5" stroke="#1e1e1e" stroke-width="1" fill="none"></path></g><g transform="translate(462.9756468848044 28.44796179957173) rotate(0 23.4375 24)"><text x="23.4375" y="0" font-family="Cascadia, Segoe UI Emoji" font-size="20px" fill="#1e1e1e" text-anchor="middle" style="white-space: pre;" direction="ltr" dominant-baseline="text-before-edge">A</text><text x="23.4375" y="24" font-family="Cascadia, Segoe UI Emoji" font-size="20px" fill="#1e1e1e" text-anchor="middle" style="white-space: pre;" direction="ltr" dominant-baseline="text-before-edge">100$</text></g><g stroke-linecap="round" transform="translate(994.1844502423824 133.82434705282952) rotate(0 44.5 44.5)"><path d="M89 44.5 C89 46.61, 88.85 48.74, 88.55 50.83 C88.25 52.92, 87.79 55.01, 87.2 57.04 C86.6 59.06, 85.86 61.07, 84.98 62.99 C84.1 64.91, 83.08 66.78, 81.94 68.56 C80.79 70.33, 79.51 72.05, 78.13 73.64 C76.75 75.24, 75.24 76.75, 73.64 78.13 C72.05 79.51, 70.33 80.79, 68.56 81.94 C66.78 83.08, 64.91 84.1, 62.99 84.98 C61.07 85.86, 59.06 86.6, 57.04 87.2 C55.01 87.79, 52.92 88.25, 50.83 88.55 C48.74 88.85, 46.61 89, 44.5 89 C42.39 89, 40.26 88.85, 38.17 88.55 C36.08 88.25, 33.99 87.79, 31.96 87.2 C29.94 86.6, 27.93 85.86, 26.01 84.98 C24.09 84.1, 22.22 83.08, 20.44 81.94 C18.67 80.79, 16.95 79.51, 15.36 78.13 C13.76 76.75, 12.25 75.24, 10.87 73.64 C9.49 72.05, 8.21 70.33, 7.06 68.56 C5.92 66.78, 4.9 64.91, 4.02 62.99 C3.14 61.07, 2.4 59.06, 1.8 57.04 C1.21 55.01, 0.75 52.92, 0.45 50.83 C0.15 48.74, 0 46.61, 0 44.5 C0 42.39, 0.15 40.26, 0.45 38.17 C0.75 36.08, 1.21 33.99, 1.8 31.96 C2.4 29.94, 3.14 27.93, 4.02 26.01 C4.9 24.09, 5.92 22.22, 7.06 20.44 C8.21 18.67, 9.49 16.95, 10.87 15.36 C12.25 13.76, 13.76 12.25, 15.36 10.87 C16.95 9.49, 18.67 8.21, 20.44 7.06 C22.22 5.92, 24.09 4.9, 26.01 4.02 C27.93 3.14, 29.94 2.4, 31.96 1.8 C33.99 1.21, 36.08 0.75, 38.17 0.45 C40.26 0.15, 42.39 0, 44.5 0 C46.61 0, 48.74 0.15, 50.83 0.45 C52.92 0.75, 55.01 1.21, 57.04 1.8 C59.06 2.4, 61.07 3.14, 62.99 4.02 C64.91 4.9, 66.78 5.92, 68.56 7.06 C70.33 8.21, 72.05 9.49, 73.64 10.87 C75.24 12.25, 76.75 13.76, 78.13 15.36 C79.51 16.95, 80.79 18.67, 81.94 20.44 C83.08 22.22, 84.1 24.09, 84.98 26.01 C85.86 27.93, 86.6 29.94, 87.2 31.96 C87.79 33.99, 88.25 36.08, 88.55 38.17 C88.85 40.26, 88.92 43.44, 89 44.5 C89.08 45.56, 89.08 43.44, 89 44.5" stroke="#1e1e1e" stroke-width="1" fill="none"></path></g><g transform="translate(1032.858823479581 166.35809529002816) rotate(0 5.859375 12)"><text x="5.859375" y="0" font-family="Cascadia, Segoe UI Emoji" font-size="20px" fill="#1e1e1e" text-anchor="middle" style="white-space: pre;" direction="ltr" dominant-baseline="text-before-edge">B</text></g><g stroke-linecap="round" transform="translate(10 180.62060135239426) rotate(0 44.5 44.5)"><path d="M89 44.5 C89 46.61, 88.85 48.74, 88.55 50.83 C88.25 52.92, 87.79 55.01, 87.2 57.04 C86.6 59.06, 85.86 61.07, 84.98 62.99 C84.1 64.91, 83.08 66.78, 81.94 68.56 C80.79 70.33, 79.51 72.05, 78.13 73.64 C76.75 75.24, 75.24 76.75, 73.64 78.13 C72.05 79.51, 70.33 80.79, 68.56 81.94 C66.78 83.08, 64.91 84.1, 62.99 84.98 C61.07 85.86, 59.06 86.6, 57.04 87.2 C55.01 87.79, 52.92 88.25, 50.83 88.55 C48.74 88.85, 46.61 89, 44.5 89 C42.39 89, 40.26 88.85, 38.17 88.55 C36.08 88.25, 33.99 87.79, 31.96 87.2 C29.94 86.6, 27.93 85.86, 26.01 84.98 C24.09 84.1, 22.22 83.08, 20.44 81.94 C18.67 80.79, 16.95 79.51, 15.36 78.13 C13.76 76.75, 12.25 75.24, 10.87 73.64 C9.49 72.05, 8.21 70.33, 7.06 68.56 C5.92 66.78, 4.9 64.91, 4.02 62.99 C3.14 61.07, 2.4 59.06, 1.8 57.04 C1.21 55.01, 0.75 52.92, 0.45 50.83 C0.15 48.74, 0 46.61, 0 44.5 C0 42.39, 0.15 40.26, 0.45 38.17 C0.75 36.08, 1.21 33.99, 1.8 31.96 C2.4 29.94, 3.14 27.93, 4.02 26.01 C4.9 24.09, 5.92 22.22, 7.06 20.44 C8.21 18.67, 9.49 16.95, 10.87 15.36 C12.25 13.76, 13.76 12.25, 15.36 10.87 C16.95 9.49, 18.67 8.21, 20.44 7.06 C22.22 5.92, 24.09 4.9, 26.01 4.02 C27.93 3.14, 29.94 2.4, 31.96 1.8 C33.99 1.21, 36.08 0.75, 38.17 0.45 C40.26 0.15, 42.39 0, 44.5 0 C46.61 0, 48.74 0.15, 50.83 0.45 C52.92 0.75, 55.01 1.21, 57.04 1.8 C59.06 2.4, 61.07 3.14, 62.99 4.02 C64.91 4.9, 66.78 5.92, 68.56 7.06 C70.33 8.21, 72.05 9.49, 73.64 10.87 C75.24 12.25, 76.75 13.76, 78.13 15.36 C79.51 16.95, 80.79 18.67, 81.94 20.44 C83.08 22.22, 84.1 24.09, 84.98 26.01 C85.86 27.93, 86.6 29.94, 87.2 31.96 C87.79 33.99, 88.25 36.08, 88.55 38.17 C88.85 40.26, 88.92 43.44, 89 44.5 C89.08 45.56, 89.08 43.44, 89 44.5" stroke="#1e1e1e" stroke-width="1" fill="none"></path></g><g transform="translate(42.81499823719861 213.1543495895929) rotate(0 11.71875 12)"><text x="11.71875" y="0" font-family="Cascadia, Segoe UI Emoji" font-size="20px" fill="#1e1e1e" text-anchor="middle" style="white-space: pre;" direction="ltr" dominant-baseline="text-before-edge">C1</text></g><g stroke-linecap="round" transform="translate(703.1322372186386 228.6092508599129) rotate(0 44.50000000000006 44.5)"><path d="M89 44.5 C89 46.61, 88.85 48.74, 88.55 50.83 C88.25 52.92, 87.79 55.01, 87.2 57.04 C86.6 59.06, 85.86 61.07, 84.98 62.99 C84.1 64.91, 83.08 66.78, 81.94 68.56 C80.79 70.33, 79.51 72.05, 78.13 73.64 C76.75 75.24, 75.24 76.75, 73.64 78.13 C72.05 79.51, 70.33 80.79, 68.56 81.94 C66.78 83.08, 64.91 84.1, 62.99 84.98 C61.07 85.86, 59.06 86.6, 57.04 87.2 C55.01 87.79, 52.92 88.25, 50.83 88.55 C48.74 88.85, 46.61 89, 44.5 89 C42.39 89, 40.26 88.85, 38.17 88.55 C36.08 88.25, 33.99 87.79, 31.96 87.2 C29.94 86.6, 27.93 85.86, 26.01 84.98 C24.09 84.1, 22.22 83.08, 20.44 81.94 C18.67 80.79, 16.95 79.51, 15.36 78.13 C13.76 76.75, 12.25 75.24, 10.87 73.64 C9.49 72.05, 8.21 70.33, 7.06 68.56 C5.92 66.78, 4.9 64.91, 4.02 62.99 C3.14 61.07, 2.4 59.06, 1.8 57.04 C1.21 55.01, 0.75 52.92, 0.45 50.83 C0.15 48.74, 0 46.61, 0 44.5 C0 42.39, 0.15 40.26, 0.45 38.17 C0.75 36.08, 1.21 33.99, 1.8 31.96 C2.4 29.94, 3.14 27.93, 4.02 26.01 C4.9 24.09, 5.92 22.22, 7.06 20.44 C8.21 18.67, 9.49 16.95, 10.87 15.36 C12.25 13.76, 13.76 12.25, 15.36 10.87 C16.95 9.49, 18.67 8.21, 20.44 7.06 C22.22 5.92, 24.09 4.9, 26.01 4.02 C27.93 3.14, 29.94 2.4, 31.96 1.8 C33.99 1.21, 36.08 0.75, 38.17 0.45 C40.26 0.15, 42.39 0, 44.5 0 C46.61 0, 48.74 0.15, 50.83 0.45 C52.92 0.75, 55.01 1.21, 57.04 1.8 C59.06 2.4, 61.07 3.14, 62.99 4.02 C64.91 4.9, 66.78 5.92, 68.56 7.06 C70.33 8.21, 72.05 9.49, 73.64 10.87 C75.24 12.25, 76.75 13.76, 78.13 15.36 C79.51 16.95, 80.79 18.67, 81.94 20.44 C83.08 22.22, 84.1 24.09, 84.98 26.01 C85.86 27.93, 86.6 29.94, 87.2 31.96 C87.79 33.99, 88.25 36.08, 88.55 38.17 C88.85 40.26, 88.92 43.44, 89 44.5 C89.08 45.56, 89.08 43.44, 89 44.5" stroke="#1e1e1e" stroke-width="1" fill="none"></path></g><g transform="translate(735.9472354558372 261.14299909711156) rotate(0 11.71875 12)"><text x="11.71875" y="0" font-family="Cascadia, Segoe UI Emoji" font-size="20px" fill="#1e1e1e" text-anchor="middle" style="white-space: pre;" direction="ltr" dominant-baseline="text-before-edge">C2</text></g><g stroke-linecap="round" transform="translate(516.0229863587251 478.0167422607834) rotate(0 44.5 44.5)"><path d="M89 44.5 C89 46.61, 88.85 48.74, 88.55 50.83 C88.25 52.92, 87.79 55.01, 87.2 57.04 C86.6 59.06, 85.86 61.07, 84.98 62.99 C84.1 64.91, 83.08 66.78, 81.94 68.56 C80.79 70.33, 79.51 72.05, 78.13 73.64 C76.75 75.24, 75.24 76.75, 73.64 78.13 C72.05 79.51, 70.33 80.79, 68.56 81.94 C66.78 83.08, 64.91 84.1, 62.99 84.98 C61.07 85.86, 59.06 86.6, 57.04 87.2 C55.01 87.79, 52.92 88.25, 50.83 88.55 C48.74 88.85, 46.61 89, 44.5 89 C42.39 89, 40.26 88.85, 38.17 88.55 C36.08 88.25, 33.99 87.79, 31.96 87.2 C29.94 86.6, 27.93 85.86, 26.01 84.98 C24.09 84.1, 22.22 83.08, 20.44 81.94 C18.67 80.79, 16.95 79.51, 15.36 78.13 C13.76 76.75, 12.25 75.24, 10.87 73.64 C9.49 72.05, 8.21 70.33, 7.06 68.56 C5.92 66.78, 4.9 64.91, 4.02 62.99 C3.14 61.07, 2.4 59.06, 1.8 57.04 C1.21 55.01, 0.75 52.92, 0.45 50.83 C0.15 48.74, 0 46.61, 0 44.5 C0 42.39, 0.15 40.26, 0.45 38.17 C0.75 36.08, 1.21 33.99, 1.8 31.96 C2.4 29.94, 3.14 27.93, 4.02 26.01 C4.9 24.09, 5.92 22.22, 7.06 20.44 C8.21 18.67, 9.49 16.95, 10.87 15.36 C12.25 13.76, 13.76 12.25, 15.36 10.87 C16.95 9.49, 18.67 8.21, 20.44 7.06 C22.22 5.92, 24.09 4.9, 26.01 4.02 C27.93 3.14, 29.94 2.4, 31.96 1.8 C33.99 1.21, 36.08 0.75, 38.17 0.45 C40.26 0.15, 42.39 0, 44.5 0 C46.61 0, 48.74 0.15, 50.83 0.45 C52.92 0.75, 55.01 1.21, 57.04 1.8 C59.06 2.4, 61.07 3.14, 62.99 4.02 C64.91 4.9, 66.78 5.92, 68.56 7.06 C70.33 8.21, 72.05 9.49, 73.64 10.87 C75.24 12.25, 76.75 13.76, 78.13 15.36 C79.51 16.95, 80.79 18.67, 81.94 20.44 C83.08 22.22, 84.1 24.09, 84.98 26.01 C85.86 27.93, 86.6 29.94, 87.2 31.96 C87.79 33.99, 88.25 36.08, 88.55 38.17 C88.85 40.26, 88.92 43.44, 89 44.5 C89.08 45.56, 89.08 43.44, 89 44.5" stroke="#1971c2" stroke-width="1" fill="none"></path></g><g transform="translate(542.9786095959238 510.550490497982) rotate(0 17.578125 12)"><text x="17.578125" y="0" font-family="Cascadia, Segoe UI Emoji" font-size="20px" fill="#1971c2" text-anchor="middle" style="white-space: pre;" direction="ltr" dominant-baseline="text-before-edge">C3*</text></g><g stroke-linecap="round" transform="translate(66.37939864760574 870.938422725168) rotate(0 44.5 44.5)"><path d="M89 44.5 C89 46.61, 88.85 48.74, 88.55 50.83 C88.25 52.92, 87.79 55.01, 87.2 57.04 C86.6 59.06, 85.86 61.07, 84.98 62.99 C84.1 64.91, 83.08 66.78, 81.94 68.56 C80.79 70.33, 79.51 72.05, 78.13 73.64 C76.75 75.24, 75.24 76.75, 73.64 78.13 C72.05 79.51, 70.33 80.79, 68.56 81.94 C66.78 83.08, 64.91 84.1, 62.99 84.98 C61.07 85.86, 59.06 86.6, 57.04 87.2 C55.01 87.79, 52.92 88.25, 50.83 88.55 C48.74 88.85, 46.61 89, 44.5 89 C42.39 89, 40.26 88.85, 38.17 88.55 C36.08 88.25, 33.99 87.79, 31.96 87.2 C29.94 86.6, 27.93 85.86, 26.01 84.98 C24.09 84.1, 22.22 83.08, 20.44 81.94 C18.67 80.79, 16.95 79.51, 15.36 78.13 C13.76 76.75, 12.25 75.24, 10.87 73.64 C9.49 72.05, 8.21 70.33, 7.06 68.56 C5.92 66.78, 4.9 64.91, 4.02 62.99 C3.14 61.07, 2.4 59.06, 1.8 57.04 C1.21 55.01, 0.75 52.92, 0.45 50.83 C0.15 48.74, 0 46.61, 0 44.5 C0 42.39, 0.15 40.26, 0.45 38.17 C0.75 36.08, 1.21 33.99, 1.8 31.96 C2.4 29.94, 3.14 27.93, 4.02 26.01 C4.9 24.09, 5.92 22.22, 7.06 20.44 C8.21 18.67, 9.49 16.95, 10.87 15.36 C12.25 13.76, 13.76 12.25, 15.36 10.87 C16.95 9.49, 18.67 8.21, 20.44 7.06 C22.22 5.92, 24.09 4.9, 26.01 4.02 C27.93 3.14, 29.94 2.4, 31.96 1.8 C33.99 1.21, 36.08 0.75, 38.17 0.45 C40.26 0.15, 42.39 0, 44.5 0 C46.61 0, 48.74 0.15, 50.83 0.45 C52.92 0.75, 55.01 1.21, 57.04 1.8 C59.06 2.4, 61.07 3.14, 62.99 4.02 C64.91 4.9, 66.78 5.92, 68.56 7.06 C70.33 8.21, 72.05 9.49, 73.64 10.87 C75.24 12.25, 76.75 13.76, 78.13 15.36 C79.51 16.95, 80.79 18.67, 81.94 20.44 C83.08 22.22, 84.1 24.09, 84.98 26.01 C85.86 27.93, 86.6 29.94, 87.2 31.96 C87.79 33.99, 88.25 36.08, 88.55 38.17 C88.85 40.26, 88.92 43.44, 89 44.5 C89.08 45.56, 89.08 43.44, 89 44.5" stroke="#1e1e1e" stroke-width="1" fill="none"></path></g><g transform="translate(99.19439688480435 903.4721709623667) rotate(0 11.71875 12)"><text x="11.71875" y="0" font-family="Cascadia, Segoe UI Emoji" font-size="20px" fill="#1e1e1e" text-anchor="middle" style="white-space: pre;" direction="ltr" dominant-baseline="text-before-edge">L1</text></g><g stroke-linecap="round" transform="translate(593.7085705128609 891.6401821842103) rotate(0 44.5 44.5)"><path d="M89 44.5 C89 46.61, 88.85 48.74, 88.55 50.83 C88.25 52.92, 87.79 55.01, 87.2 57.04 C86.6 59.06, 85.86 61.07, 84.98 62.99 C84.1 64.91, 83.08 66.78, 81.94 68.56 C80.79 70.33, 79.51 72.05, 78.13 73.64 C76.75 75.24, 75.24 76.75, 73.64 78.13 C72.05 79.51, 70.33 80.79, 68.56 81.94 C66.78 83.08, 64.91 84.1, 62.99 84.98 C61.07 85.86, 59.06 86.6, 57.04 87.2 C55.01 87.79, 52.92 88.25, 50.83 88.55 C48.74 88.85, 46.61 89, 44.5 89 C42.39 89, 40.26 88.85, 38.17 88.55 C36.08 88.25, 33.99 87.79, 31.96 87.2 C29.94 86.6, 27.93 85.86, 26.01 84.98 C24.09 84.1, 22.22 83.08, 20.44 81.94 C18.67 80.79, 16.95 79.51, 15.36 78.13 C13.76 76.75, 12.25 75.24, 10.87 73.64 C9.49 72.05, 8.21 70.33, 7.06 68.56 C5.92 66.78, 4.9 64.91, 4.02 62.99 C3.14 61.07, 2.4 59.06, 1.8 57.04 C1.21 55.01, 0.75 52.92, 0.45 50.83 C0.15 48.74, 0 46.61, 0 44.5 C0 42.39, 0.15 40.26, 0.45 38.17 C0.75 36.08, 1.21 33.99, 1.8 31.96 C2.4 29.94, 3.14 27.93, 4.02 26.01 C4.9 24.09, 5.92 22.22, 7.06 20.44 C8.21 18.67, 9.49 16.95, 10.87 15.36 C12.25 13.76, 13.76 12.25, 15.36 10.87 C16.95 9.49, 18.67 8.21, 20.44 7.06 C22.22 5.92, 24.09 4.9, 26.01 4.02 C27.93 3.14, 29.94 2.4, 31.96 1.8 C33.99 1.21, 36.08 0.75, 38.17 0.45 C40.26 0.15, 42.39 0, 44.5 0 C46.61 0, 48.74 0.15, 50.83 0.45 C52.92 0.75, 55.01 1.21, 57.04 1.8 C59.06 2.4, 61.07 3.14, 62.99 4.02 C64.91 4.9, 66.78 5.92, 68.56 7.06 C70.33 8.21, 72.05 9.49, 73.64 10.87 C75.24 12.25, 76.75 13.76, 78.13 15.36 C79.51 16.95, 80.79 18.67, 81.94 20.44 C83.08 22.22, 84.1 24.09, 84.98 26.01 C85.86 27.93, 86.6 29.94, 87.2 31.96 C87.79 33.99, 88.25 36.08, 88.55 38.17 C88.85 40.26, 88.92 43.44, 89 44.5 C89.08 45.56, 89.08 43.44, 89 44.5" stroke="#1e1e1e" stroke-width="1" fill="none"></path></g><g transform="translate(626.5235687500596 924.173930421409) rotate(0 11.71875 12)"><text x="11.71875" y="0" font-family="Cascadia, Segoe UI Emoji" font-size="20px" fill="#1e1e1e" text-anchor="middle" style="white-space: pre;" direction="ltr" dominant-baseline="text-before-edge">L2</text></g><g stroke-linecap="round" transform="translate(901.8774124062124 862.938422725168) rotate(0 44.5 44.5)"><path d="M89 44.5 C89 46.61, 88.85 48.74, 88.55 50.83 C88.25 52.92, 87.79 55.01, 87.2 57.04 C86.6 59.06, 85.86 61.07, 84.98 62.99 C84.1 64.91, 83.08 66.78, 81.94 68.56 C80.79 70.33, 79.51 72.05, 78.13 73.64 C76.75 75.24, 75.24 76.75, 73.64 78.13 C72.05 79.51, 70.33 80.79, 68.56 81.94 C66.78 83.08, 64.91 84.1, 62.99 84.98 C61.07 85.86, 59.06 86.6, 57.04 87.2 C55.01 87.79, 52.92 88.25, 50.83 88.55 C48.74 88.85, 46.61 89, 44.5 89 C42.39 89, 40.26 88.85, 38.17 88.55 C36.08 88.25, 33.99 87.79, 31.96 87.2 C29.94 86.6, 27.93 85.86, 26.01 84.98 C24.09 84.1, 22.22 83.08, 20.44 81.94 C18.67 80.79, 16.95 79.51, 15.36 78.13 C13.76 76.75, 12.25 75.24, 10.87 73.64 C9.49 72.05, 8.21 70.33, 7.06 68.56 C5.92 66.78, 4.9 64.91, 4.02 62.99 C3.14 61.07, 2.4 59.06, 1.8 57.04 C1.21 55.01, 0.75 52.92, 0.45 50.83 C0.15 48.74, 0 46.61, 0 44.5 C0 42.39, 0.15 40.26, 0.45 38.17 C0.75 36.08, 1.21 33.99, 1.8 31.96 C2.4 29.94, 3.14 27.93, 4.02 26.01 C4.9 24.09, 5.92 22.22, 7.06 20.44 C8.21 18.67, 9.49 16.95, 10.87 15.36 C12.25 13.76, 13.76 12.25, 15.36 10.87 C16.95 9.49, 18.67 8.21, 20.44 7.06 C22.22 5.92, 24.09 4.9, 26.01 4.02 C27.93 3.14, 29.94 2.4, 31.96 1.8 C33.99 1.21, 36.08 0.75, 38.17 0.45 C40.26 0.15, 42.39 0, 44.5 0 C46.61 0, 48.74 0.15, 50.83 0.45 C52.92 0.75, 55.01 1.21, 57.04 1.8 C59.06 2.4, 61.07 3.14, 62.99 4.02 C64.91 4.9, 66.78 5.92, 68.56 7.06 C70.33 8.21, 72.05 9.49, 73.64 10.87 C75.24 12.25, 76.75 13.76, 78.13 15.36 C79.51 16.95, 80.79 18.67, 81.94 20.44 C83.08 22.22, 84.1 24.09, 84.98 26.01 C85.86 27.93, 86.6 29.94, 87.2 31.96 C87.79 33.99, 88.25 36.08, 88.55 38.17 C88.85 40.26, 88.92 43.44, 89 44.5 C89.08 45.56, 89.08 43.44, 89 44.5" stroke="#1e1e1e" stroke-width="1" fill="none"></path></g><g transform="translate(934.692410643411 895.4721709623667) rotate(0 11.71875 12)"><text x="11.71875" y="0" font-family="Cascadia, Segoe UI Emoji" font-size="20px" fill="#1e1e1e" text-anchor="middle" style="white-space: pre;" direction="ltr" dominant-baseline="text-before-edge">L3</text></g><g mask="url(#mask--9wwEKTs4PPyXPgT6Ghh4)" stroke-linecap="round"><g transform="translate(447.4616494281404 75.03626583832117) rotate(0 -174.54492480003626 67.4273757860768)"><path d="M0 0 C-110.24 42.59, -220.49 85.18, -349.09 134.85 M0 0 C-108.63 41.96, -217.26 83.93, -349.09 134.85" stroke="#1e1e1e" stroke-width="1" fill="none"></path></g><g transform="translate(447.4616494281404 75.03626583832117) rotate(0 -174.54492480003626 67.4273757860768)"><path d="M-330.26 118.41 C-336.2 123.61, -342.15 128.8, -349.09 134.85 M-330.26 118.41 C-336.12 123.53, -341.98 128.65, -349.09 134.85" stroke="#1e1e1e" stroke-width="1" fill="none"></path></g><g transform="translate(447.4616494281404 75.03626583832117) rotate(0 -174.54492480003626 67.4273757860768)"><path d="M-324.09 134.37 C-331.99 134.52, -339.88 134.67, -349.09 134.85 M-324.09 134.37 C-331.87 134.52, -339.65 134.67, -349.09 134.85" stroke="#1e1e1e" stroke-width="1" fill="none"></path></g></g><mask id="mask--9wwEKTs4PPyXPgT6Ghh4"><rect x="0" y="0" fill="#fff" width="896.5514990282129" height="309.8910174104748"></rect><rect x="255.33859962810413" y="130.46364162439795" fill="#000" width="35.15625" height="24" opacity="1"></rect></mask><g transform="translate(255.33859962810413 130.46364162439798) rotate(0 17.578125 11.999999999999986)"><text x="17.578125" y="0" font-family="Cascadia, Segoe UI Emoji" font-size="20px" fill="#1e1e1e" text-anchor="middle" style="white-space: pre;" direction="ltr" dominant-baseline="text-before-edge">0.3</text></g><g mask="url(#mask-WrMURIJRmL2SudvjF9MRW)" stroke-linecap="round"><g transform="translate(535.1754592350951 53.54813450294583) rotate(0 231.35992232936997 52.08797836121204)"><path d="M0 0 C120.21 27.06, 240.42 54.13, 462.72 104.18 M0 0 C174.28 39.24, 348.56 78.47, 462.72 104.18" stroke="#1e1e1e" stroke-width="1" fill="none"></path></g><g transform="translate(535.1754592350951 53.54813450294583) rotate(0 231.35992232936997 52.08797836121204)"><path d="M437.92 107.36 C444.37 106.53, 450.81 105.7, 462.72 104.18 M437.92 107.36 C447.26 106.16, 456.6 104.96, 462.72 104.18" stroke="#1e1e1e" stroke-width="1" fill="none"></path></g><g transform="translate(535.1754592350951 53.54813450294583) rotate(0 231.35992232936997 52.08797836121204)"><path d="M441.68 90.67 C447.15 94.18, 452.61 97.69, 462.72 104.18 M441.68 90.67 C449.6 95.76, 457.53 100.84, 462.72 104.18" stroke="#1e1e1e" stroke-width="1" fill="none"></path></g></g><mask id="mask-WrMURIJRmL2SudvjF9MRW"><rect x="0" y="0" fill="#fff" width="1097.895303893835" height="257.7240912253699"></rect><rect x="748.9572565644651" y="93.63611286415787" fill="#000" width="35.15625" height="24" opacity="1"></rect></mask><g transform="translate(748.9572565644651 93.63611286415787) rotate(0 17.578125 12)"><text x="17.578125" y="0" font-family="Cascadia, Segoe UI Emoji" font-size="20px" fill="#1e1e1e" text-anchor="middle" style="white-space: pre;" direction="ltr" dominant-baseline="text-before-edge">0.7</text></g><g mask="url(#mask-4pVlUHbQvHQO2suCsDLJX)" stroke-linecap="round"><g transform="translate(1007.6070685539476 211.91391161373653) rotate(0 -107.37809982577232 28.071538755137013)"><path d="M0 0 C-53.57 14.01, -107.14 28.01, -214.76 56.14 M0 0 C-44.86 11.73, -89.71 23.45, -214.76 56.14" stroke="#1e1e1e" stroke-width="1" fill="none"></path></g><g transform="translate(1007.6070685539476 211.91391161373653) rotate(0 -107.37809982577232 28.071538755137013)"><path d="M-194.19 41.93 C-199.32 45.47, -204.45 49.02, -214.76 56.14 M-194.19 41.93 C-198.49 44.9, -202.78 47.87, -214.76 56.14" stroke="#1e1e1e" stroke-width="1" fill="none"></path></g><g transform="translate(1007.6070685539476 211.91391161373653) rotate(0 -107.37809982577232 28.071538755137013)"><path d="M-189.87 58.47 C-196.07 57.89, -202.28 57.31, -214.76 56.14 M-189.87 58.47 C-195.06 57.99, -200.26 57.5, -214.76 56.14" stroke="#1e1e1e" stroke-width="1" fill="none"></path></g></g><mask id="mask-4pVlUHbQvHQO2suCsDLJX"><rect x="0" y="0" fill="#fff" width="1322.3632682054922" height="368.05698912401056"></rect><rect x="882.650843728175" y="227.9854503688736" fill="#000" width="35.15625" height="24" opacity="1"></rect></mask><g transform="translate(882.6508437281752 227.98545036887356) rotate(0 17.578125 11.999999999999986)"><text x="17.578125" y="0" font-family="Cascadia, Segoe UI Emoji" font-size="20px" fill="#1e1e1e" text-anchor="middle" style="white-space: pre;" direction="ltr" dominant-baseline="text-before-edge">0.7</text></g><g mask="url(#mask-ES3G41VztI2j52MkS8AV_)" stroke-linecap="round"><g transform="translate(1026.8369803316484 222.4578089237756) rotate(0 -39.2158565276153 319.76291261194535)"><path d="M0 0 C-21.78 177.6, -43.56 355.2, -78.43 639.53 M0 0 C-18.86 153.81, -37.73 307.62, -78.43 639.53" stroke="#1e1e1e" stroke-width="1" fill="none"></path></g><g transform="translate(1026.8369803316484 222.4578089237756) rotate(0 -39.2158565276153 319.76291261194535)"><path d="M-84.06 615.17 C-82.5 621.93, -80.93 628.7, -78.43 639.53 M-84.06 615.17 C-82.71 621.03, -81.35 626.88, -78.43 639.53" stroke="#1e1e1e" stroke-width="1" fill="none"></path></g><g transform="translate(1026.8369803316484 222.4578089237756) rotate(0 -39.2158565276153 319.76291261194535)"><path d="M-67.09 617.25 C-70.24 623.44, -73.39 629.62, -78.43 639.53 M-67.09 617.25 C-69.81 622.61, -72.54 627.96, -78.43 639.53" stroke="#1e1e1e" stroke-width="1" fill="none"></path></g></g><mask id="mask-ES3G41VztI2j52MkS8AV_"><rect x="0" y="0" fill="#fff" width="1205.268693386879" height="961.9836341476663"></rect><rect x="970.042998804033" y="530.2207215357209" fill="#000" width="35.15625" height="24" opacity="1"></rect></mask><g transform="translate(970.042998804033 530.2207215357209) rotate(0 17.578124999999886 12)"><text x="17.578125" y="0" font-family="Cascadia, Segoe UI Emoji" font-size="20px" fill="#1e1e1e" text-anchor="middle" style="white-space: pre;" direction="ltr" dominant-baseline="text-before-edge">0.3</text></g><g mask="url(#mask-z1juxNzplGop7jPzBmSYO)" stroke-linecap="round"><g transform="translate(747.4571158360845 318.6089138531854) rotate(0 -46.471468735936355 287.5266537721534)"><path d="M0 0 C-22.4 138.59, -44.8 277.18, -92.94 575.05 M0 0 C-18.97 117.36, -37.94 234.72, -92.94 575.05" stroke="#1e1e1e" stroke-width="1" fill="none"></path></g><g transform="translate(747.4571158360845 318.6089138531854) rotate(0 -46.471468735936355 287.5266537721534)"><path d="M-97.64 550.5 C-96.5 556.42, -95.37 562.33, -92.94 575.05 M-97.64 550.5 C-96.68 555.51, -95.72 560.52, -92.94 575.05" stroke="#1e1e1e" stroke-width="1" fill="none"></path></g><g transform="translate(747.4571158360845 318.6089138531854) rotate(0 -46.471468735936355 287.5266537721534)"><path d="M-80.75 553.23 C-83.69 558.49, -86.63 563.75, -92.94 575.05 M-80.75 553.23 C-83.24 557.68, -85.73 562.14, -92.94 575.05" stroke="#1e1e1e" stroke-width="1" fill="none"></path></g></g><mask id="mask-z1juxNzplGop7jPzBmSYO"><rect x="0" y="0" fill="#fff" width="940.4000533079573" height="993.6622213974922"></rect><rect x="683.4075221001481" y="594.1355676253388" fill="#000" width="35.15625" height="24" opacity="1"></rect></mask><g transform="translate(683.4075221001481 594.1355676253388) rotate(0 17.578125 12)"><text x="17.578125" y="0" font-family="Cascadia, Segoe UI Emoji" font-size="20px" fill="#1e1e1e" text-anchor="middle" style="white-space: pre;" direction="ltr" dominant-baseline="text-before-edge">0.8</text></g><g mask="url(#mask-EUIN0dbrxCIM0QHmzrF_r)" stroke-linecap="round"><g transform="translate(46.477719482510395 276.24562472939334) rotate(0 27.64422445075158 295.9769603182598)"><path d="M0 0 C19.08 204.27, 38.16 408.53, 55.29 591.95 M0 0 C18.53 198.45, 37.07 396.89, 55.29 591.95" stroke="#1e1e1e" stroke-width="1" fill="none"></path></g><g transform="translate(46.477719482510395 276.24562472939334) rotate(0 27.64422445075158 295.9769603182598)"><path d="M44.59 569.36 C48.28 577.16, 51.97 584.95, 55.29 591.95 M44.59 569.36 C48.18 576.93, 51.76 584.51, 55.29 591.95" stroke="#1e1e1e" stroke-width="1" fill="none"></path></g><g transform="translate(46.477719482510395 276.24562472939334) rotate(0 27.64422445075158 295.9769603182598)"><path d="M61.62 567.77 C59.43 576.11, 57.25 584.46, 55.29 591.95 M61.62 567.77 C59.5 575.88, 57.37 583.98, 55.29 591.95" stroke="#1e1e1e" stroke-width="1" fill="none"></path></g></g><mask id="mask-EUIN0dbrxCIM0QHmzrF_r"><rect x="0" y="0" fill="#fff" width="201.76616838401355" height="968.1995453659129"></rect><rect x="56.543818933261946" y="560.2225850476532" fill="#000" width="35.15625" height="24" opacity="1"></rect></mask><g transform="translate(56.543818933261946 560.2225850476531) rotate(0 17.57812500000003 12.000000000000057)"><text x="17.578125" y="0" font-family="Cascadia, Segoe UI Emoji" font-size="20px" fill="#1e1e1e" text-anchor="middle" style="white-space: pre;" direction="ltr" dominant-baseline="text-before-edge">0.6</text></g><g stroke-linecap="round" transform="translate(173.39935372125467 474.80857714442976) rotate(0 44.5 44.50000000000003)"><path d="M89 44.5 C89 46.61, 88.85 48.74, 88.55 50.83 C88.25 52.92, 87.79 55.01, 87.2 57.04 C86.6 59.06, 85.86 61.07, 84.98 62.99 C84.1 64.91, 83.08 66.78, 81.94 68.56 C80.79 70.33, 79.51 72.05, 78.13 73.64 C76.75 75.24, 75.24 76.75, 73.64 78.13 C72.05 79.51, 70.33 80.79, 68.56 81.94 C66.78 83.08, 64.91 84.1, 62.99 84.98 C61.07 85.86, 59.06 86.6, 57.04 87.2 C55.01 87.79, 52.92 88.25, 50.83 88.55 C48.74 88.85, 46.61 89, 44.5 89 C42.39 89, 40.26 88.85, 38.17 88.55 C36.08 88.25, 33.99 87.79, 31.96 87.2 C29.94 86.6, 27.93 85.86, 26.01 84.98 C24.09 84.1, 22.22 83.08, 20.44 81.94 C18.67 80.79, 16.95 79.51, 15.36 78.13 C13.76 76.75, 12.25 75.24, 10.87 73.64 C9.49 72.05, 8.21 70.33, 7.06 68.56 C5.92 66.78, 4.9 64.91, 4.02 62.99 C3.14 61.07, 2.4 59.06, 1.8 57.04 C1.21 55.01, 0.75 52.92, 0.45 50.83 C0.15 48.74, 0 46.61, 0 44.5 C0 42.39, 0.15 40.26, 0.45 38.17 C0.75 36.08, 1.21 33.99, 1.8 31.96 C2.4 29.94, 3.14 27.93, 4.02 26.01 C4.9 24.09, 5.92 22.22, 7.06 20.44 C8.21 18.67, 9.49 16.95, 10.87 15.36 C12.25 13.76, 13.76 12.25, 15.36 10.87 C16.95 9.49, 18.67 8.21, 20.44 7.06 C22.22 5.92, 24.09 4.9, 26.01 4.02 C27.93 3.14, 29.94 2.4, 31.96 1.8 C33.99 1.21, 36.08 0.75, 38.17 0.45 C40.26 0.15, 42.39 0, 44.5 0 C46.61 0, 48.74 0.15, 50.83 0.45 C52.92 0.75, 55.01 1.21, 57.04 1.8 C59.06 2.4, 61.07 3.14, 62.99 4.02 C64.91 4.9, 66.78 5.92, 68.56 7.06 C70.33 8.21, 72.05 9.49, 73.64 10.87 C75.24 12.25, 76.75 13.76, 78.13 15.36 C79.51 16.95, 80.79 18.67, 81.94 20.44 C83.08 22.22, 84.1 24.09, 84.98 26.01 C85.86 27.93, 86.6 29.94, 87.2 31.96 C87.79 33.99, 88.25 36.08, 88.55 38.17 C88.85 40.26, 88.92 43.44, 89 44.5 C89.08 45.56, 89.08 43.44, 89 44.5" stroke="#1971c2" stroke-width="1" fill="none"></path></g><g transform="translate(200.35497695845334 507.34232538162837) rotate(0 17.578125 12)"><text x="17.578125" y="0" font-family="Cascadia, Segoe UI Emoji" font-size="20px" fill="#1971c2" text-anchor="middle" style="white-space: pre;" direction="ltr" dominant-baseline="text-before-edge">C1*</text></g><g stroke-linecap="round" transform="translate(352.7024190746379 475.9882025743863) rotate(0 44.5 44.50000000000003)"><path d="M89 44.5 C89 46.61, 88.85 48.74, 88.55 50.83 C88.25 52.92, 87.79 55.01, 87.2 57.04 C86.6 59.06, 85.86 61.07, 84.98 62.99 C84.1 64.91, 83.08 66.78, 81.94 68.56 C80.79 70.33, 79.51 72.05, 78.13 73.64 C76.75 75.24, 75.24 76.75, 73.64 78.13 C72.05 79.51, 70.33 80.79, 68.56 81.94 C66.78 83.08, 64.91 84.1, 62.99 84.98 C61.07 85.86, 59.06 86.6, 57.04 87.2 C55.01 87.79, 52.92 88.25, 50.83 88.55 C48.74 88.85, 46.61 89, 44.5 89 C42.39 89, 40.26 88.85, 38.17 88.55 C36.08 88.25, 33.99 87.79, 31.96 87.2 C29.94 86.6, 27.93 85.86, 26.01 84.98 C24.09 84.1, 22.22 83.08, 20.44 81.94 C18.67 80.79, 16.95 79.51, 15.36 78.13 C13.76 76.75, 12.25 75.24, 10.87 73.64 C9.49 72.05, 8.21 70.33, 7.06 68.56 C5.92 66.78, 4.9 64.91, 4.02 62.99 C3.14 61.07, 2.4 59.06, 1.8 57.04 C1.21 55.01, 0.75 52.92, 0.45 50.83 C0.15 48.74, 0 46.61, 0 44.5 C0 42.39, 0.15 40.26, 0.45 38.17 C0.75 36.08, 1.21 33.99, 1.8 31.96 C2.4 29.94, 3.14 27.93, 4.02 26.01 C4.9 24.09, 5.92 22.22, 7.06 20.44 C8.21 18.67, 9.49 16.95, 10.87 15.36 C12.25 13.76, 13.76 12.25, 15.36 10.87 C16.95 9.49, 18.67 8.21, 20.44 7.06 C22.22 5.92, 24.09 4.9, 26.01 4.02 C27.93 3.14, 29.94 2.4, 31.96 1.8 C33.99 1.21, 36.08 0.75, 38.17 0.45 C40.26 0.15, 42.39 0, 44.5 0 C46.61 0, 48.74 0.15, 50.83 0.45 C52.92 0.75, 55.01 1.21, 57.04 1.8 C59.06 2.4, 61.07 3.14, 62.99 4.02 C64.91 4.9, 66.78 5.92, 68.56 7.06 C70.33 8.21, 72.05 9.49, 73.64 10.87 C75.24 12.25, 76.75 13.76, 78.13 15.36 C79.51 16.95, 80.79 18.67, 81.94 20.44 C83.08 22.22, 84.1 24.09, 84.98 26.01 C85.86 27.93, 86.6 29.94, 87.2 31.96 C87.79 33.99, 88.25 36.08, 88.55 38.17 C88.85 40.26, 88.92 43.44, 89 44.5 C89.08 45.56, 89.08 43.44, 89 44.5" stroke="#1971c2" stroke-width="1" fill="none"></path></g><g transform="translate(379.65804231183654 508.52195081158493) rotate(0 17.578125 12)"><text x="17.578125" y="0" font-family="Cascadia, Segoe UI Emoji" font-size="20px" fill="#1971c2" text-anchor="middle" style="white-space: pre;" direction="ltr" dominant-baseline="text-before-edge">C2*</text></g><g mask="url(#mask-KYoAT176RPrZL15tPAhE7)" stroke-linecap="round"><g transform="translate(61.6926407996861 270.065230778182) rotate(0 60.67504192779302 109.99921263302751)"><path d="M-0.29 0.91 C20.24 37.78, 102.13 183.67, 122.25 220.24 M1.76 0.35 C22.29 36.91, 101.59 181.94, 121.78 218.24" stroke="#e03131" stroke-width="1" fill="none"></path></g><g transform="translate(61.6926407996861 270.065230778182) rotate(0 60.67504192779302 109.99921263302751)"><path d="M102.95 201.79 C108.56 207.02, 111.65 207.7, 121.78 218.24 M102.95 201.79 C109.36 207.46, 115.81 212.92, 121.78 218.24" stroke="#e03131" stroke-width="1" fill="none"></path></g><g transform="translate(61.6926407996861 270.065230778182) rotate(0 60.67504192779302 109.99921263302751)"><path d="M117.93 193.54 C120.12 200.58, 119.86 203.1, 121.78 218.24 M117.93 193.54 C119.38 202.06, 120.88 210.24, 121.78 218.24" stroke="#e03131" stroke-width="1" fill="none"></path></g></g><mask id="mask-KYoAT176RPrZL15tPAhE7"><rect x="0" y="0" fill="#fff" width="283.04272465527214" height="590.0636560442371"></rect><rect x="98.93018272747912" y="368.0644434112095" fill="#000" width="46.875" height="24" opacity="1"></rect></mask><g transform="translate(98.93018272747918 368.0644434112095) rotate(0 23.74345964938402 12.295569477318807)"><text x="23.4375" y="0" font-family="Cascadia, Segoe UI Emoji" font-size="20px" fill="#e03131" text-anchor="middle" style="white-space: pre;" direction="ltr" dominant-baseline="text-before-edge">0.25</text></g><g mask="url(#mask-25vI1_vPjlLV-Vi4gcJkT)" stroke-linecap="round"><g transform="translate(91.67943271591253 250.77764582013242) rotate(0 135.03688989183104 120.78413974118371)"><path d="M-0.91 -1.08 C44.36 39.35, 225.27 201.3, 270.63 241.6 M0.81 0.97 C46.06 41.69, 224.93 203.05, 269.97 243.16" stroke="#e03131" stroke-width="1" fill="none"></path></g><g transform="translate(91.67943271591253 250.77764582013242) rotate(0 135.03688989183104 120.78413974118371)"><path d="M246.77 233.83 C249.92 236.95, 256.78 239.98, 269.97 243.16 M246.77 233.83 C252.88 236.55, 257.89 238.23, 269.97 243.16" stroke="#e03131" stroke-width="1" fill="none"></path></g><g transform="translate(91.67943271591253 250.77764582013242) rotate(0 135.03688989183104 120.78413974118371)"><path d="M258.19 221.1 C258.77 226.88, 263.16 232.66, 269.97 243.16 M258.19 221.1 C261.6 226.79, 263.98 231.39, 269.97 243.16" stroke="#e03131" stroke-width="1" fill="none"></path></g></g><mask id="mask-25vI1_vPjlLV-Vi4gcJkT"><rect x="0" y="0" fill="#fff" width="461.7532124995746" height="592.3459253024998"></rect><rect x="197.41944760774356" y="359.5617855613161" fill="#000" width="58.59375" height="24" opacity="1"></rect></mask><g transform="translate(197.41944760774356 359.5617855613161) rotate(0 29.119117717444908 12.255585744506703)"><text x="29.296875" y="0" font-family="Cascadia, Segoe UI Emoji" font-size="20px" fill="#e03131" text-anchor="middle" style="white-space: pre;" direction="ltr" dominant-baseline="text-before-edge">0.133</text></g><g mask="url(#mask-y3LA-EHVfZgEI-9aCpwLL)" stroke-linecap="round"><g transform="translate(99.79818654764705 242.90034366363858) rotate(0 219.58123361081468 119.77500301526558)"><path d="M-0.85 0.4 C72.45 40.42, 366.12 198.94, 439.3 238.99 M0.9 -0.44 C74.11 39.84, 365.14 200.33, 438.42 240.23" stroke="#e03131" stroke-width="1" fill="none"></path></g><g transform="translate(99.79818654764705 242.90034366363858) rotate(0 219.58123361081468 119.77500301526558)"><path d="M413.71 236.43 C420.64 237.8, 425.35 236.92, 438.42 240.23 M413.71 236.43 C423.78 238.37, 433.7 239.01, 438.42 240.23" stroke="#e03131" stroke-width="1" fill="none"></path></g><g transform="translate(99.79818654764705 242.90034366363858) rotate(0 219.58123361081468 119.77500301526558)"><path d="M421.93 221.43 C426.63 226.57, 429.23 229.53, 438.42 240.23 M421.93 221.43 C428.86 229.34, 435.52 235.92, 438.42 240.23" stroke="#e03131" stroke-width="1" fill="none"></path></g></g><mask id="mask-y3LA-EHVfZgEI-9aCpwLL"><rect x="0" y="0" fill="#fff" width="638.9606537692764" height="582.4503496941697"></rect><rect x="290.08254515846164" y="350.6753466789041" fill="#000" width="58.59375" height="24" opacity="1"></rect></mask><g transform="translate(290.0825451584617 350.67534667890413) rotate(0 28.938223166763777 12.119881381122411)"><text x="29.296875" y="0" font-family="Cascadia, Segoe UI Emoji" font-size="20px" fill="#e03131" text-anchor="middle" style="white-space: pre;" direction="ltr" dominant-baseline="text-before-edge">0.017</text></g><g mask="url(#mask-Rdp2qhrvnG852mGQOscU1)" stroke-linecap="round"><g transform="translate(702.5149461187651 263.89252177802445) rotate(0 -222.48943127407904 109.79813193155016)"><path d="M1.16 0.77 C-72.92 37.39, -370.82 183.46, -445.21 219.98 M0.32 0.14 C-73.89 36.36, -371.89 181.18, -446.28 218.06" stroke="#e03131" stroke-width="1" fill="none"></path></g><g transform="translate(702.5149461187651 263.89252177802445) rotate(0 -222.48943127407904 109.79813193155016)"><path d="M-428.95 200.04 C-431.83 204.2, -436.68 208.63, -446.28 218.06 M-428.95 200.04 C-434.65 206.75, -439.69 211.53, -446.28 218.06" stroke="#e03131" stroke-width="1" fill="none"></path></g><g transform="translate(702.5149461187651 263.89252177802445) rotate(0 -222.48943127407904 109.79813193155016)"><path d="M-421.42 215.4 C-426.16 215.9, -432.85 216.6, -446.28 218.06 M-421.42 215.4 C-429.52 217.03, -437.03 216.8, -446.28 218.06" stroke="#e03131" stroke-width="1" fill="none"></path></g></g><mask id="mask-Rdp2qhrvnG852mGQOscU1"><rect x="0" y="0" fill="#fff" width="1247.493808666923" height="583.4887856411248"></rect><rect x="456.588014844686" y="361.6906537095745" fill="#000" width="46.875" height="24" opacity="1"></rect></mask><g transform="translate(456.5880148446862 361.6906537095746) rotate(0 23.368475526818088 12.260305955386755)"><text x="23.4375" y="0" font-family="Cascadia, Segoe UI Emoji" font-size="20px" fill="#e03131" text-anchor="middle" style="white-space: pre;" direction="ltr" dominant-baseline="text-before-edge">0.01</text></g><g mask="url(#mask--t47wGprdkCoQnG2fHKtD)" stroke-linecap="round"><g transform="translate(708.71534185015 296.94269798514716) rotate(0 -146.69910774509322 88.58790998319796)"><path d="M0.25 -0.63 C-48.27 28.76, -243.34 146.94, -292.27 176.56 M-1.07 1.66 C-49.56 31.18, -243.8 148.32, -292.63 177.77" stroke="#e03131" stroke-width="1" fill="none"></path></g><g transform="translate(708.71534185015 296.94269798514716) rotate(0 -146.69910774509322 88.58790998319796)"><path d="M-276.93 158.31 C-281.15 164.21, -284.35 166.47, -292.63 177.77 M-276.93 158.31 C-280.71 163.45, -285.95 169.52, -292.63 177.77" stroke="#e03131" stroke-width="1" fill="none"></path></g><g transform="translate(708.71534185015 296.94269798514716) rotate(0 -146.69910774509322 88.58790998319796)"><path d="M-268.09 172.96 C-274.16 175.88, -279.17 175.14, -292.63 177.77 M-268.09 172.96 C-274.52 173.91, -282.33 175.7, -292.63 177.77" stroke="#e03131" stroke-width="1" fill="none"></path></g></g><mask id="mask--t47wGprdkCoQnG2fHKtD"><rect x="0" y="0" fill="#fff" width="1102.1135573403365" height="574.118517951543"></rect><rect x="538.5787341050568" y="373.5306079683451" fill="#000" width="46.875" height="24" opacity="1"></rect></mask><g transform="translate(538.5787341050567 373.5306079683452) rotate(0 23.950001161680518 11.983575482158926)"><text x="23.4375" y="0" font-family="Cascadia, Segoe UI Emoji" font-size="20px" fill="#e03131" text-anchor="middle" style="white-space: pre;" direction="ltr" dominant-baseline="text-before-edge">0.17</text></g><g mask="url(#mask-UqkJXyUlk0fTr86qQnRRF)" stroke-linecap="round"><g transform="translate(733.7194105290966 318.59162477675284) rotate(0 -69.33480096915588 85.35215610369426)"><path d="M-0.11 0.24 C-23.24 28.87, -114.97 142.76, -138.24 171.18 M-1.62 -0.67 C-24.92 27.64, -116.34 140.52, -138.96 169.3" stroke="#e03131" stroke-width="1" fill="none"></path></g><g transform="translate(733.7194105290966 318.59162477675284) rotate(0 -69.33480096915588 85.35215610369426)"><path d="M-130.97 145.61 C-133.44 154.49, -135.82 160.24, -138.96 169.3 M-130.97 145.61 C-133.07 153.54, -135.38 159.67, -138.96 169.3" stroke="#e03131" stroke-width="1" fill="none"></path></g><g transform="translate(733.7194105290966 318.59162477675284) rotate(0 -69.33480096915588 85.35215610369426)"><path d="M-117.61 156.3 C-124.64 161.48, -131.62 163.54, -138.96 169.3 M-117.61 156.3 C-123.68 160.97, -130.01 163.88, -138.96 169.3" stroke="#e03131" stroke-width="1" fill="none"></path></g></g><mask id="mask-UqkJXyUlk0fTr86qQnRRF"><rect x="0" y="0" fill="#fff" width="972.3890124674084" height="589.2959369841413"></rect><rect x="640.9471095599408" y="391.9437808804471" fill="#000" width="46.875" height="24" opacity="1"></rect></mask><g transform="translate(640.9471095599408 391.9437808804471) rotate(0 23.238310630568208 11.898588165021494)"><text x="23.4375" y="0" font-family="Cascadia, Segoe UI Emoji" font-size="20px" fill="#e03131" text-anchor="middle" style="white-space: pre;" direction="ltr" dominant-baseline="text-before-edge">0.02</text></g><g mask="url(#mask-lXTlQu1d2pkm1qXwlWoR7)" stroke-linecap="round"><g transform="translate(214.7011733509346 564.6960384340734) rotate(0 -39.89951063373016 155.5119432414454)"><path d="M0.03 -1.17 C-13.23 50.65, -65.96 259.19, -79.35 311.03 M-1.41 0.83 C-14.81 52.84, -66.75 260.95, -80.06 312.57" stroke="#2f9e44" stroke-width="1" fill="none"></path></g><g transform="translate(214.7011733509346 564.6960384340734) rotate(0 -39.89951063373016 155.5119432414454)"><path d="M-82.58 287.7 C-83.7 296.32, -80.95 302.65, -80.06 312.57 M-82.58 287.7 C-81.93 292.95, -82.29 297.63, -80.06 312.57" stroke="#2f9e44" stroke-width="1" fill="none"></path></g><g transform="translate(214.7011733509346 564.6960384340734) rotate(0 -39.89951063373016 155.5119432414454)"><path d="M-66 291.9 C-72.37 299.19, -74.86 304.2, -80.06 312.57 M-66 291.9 C-68.75 296.27, -72.46 300.11, -80.06 312.57" stroke="#2f9e44" stroke-width="1" fill="none"></path></g></g><mask id="mask-lXTlQu1d2pkm1qXwlWoR7"><rect x="0" y="0" fill="#fff" width="394.5001946183949" height="975.7199249169643"></rect><rect x="157.2235377172044" y="708.2079816755188" fill="#000" width="35.15625" height="24" opacity="1"></rect></mask><g transform="translate(157.22353771720435 708.2079816755187) rotate(0 17.462761519798107 12.18944717300593)"><text x="17.578125" y="0" font-family="Cascadia, Segoe UI Emoji" font-size="20px" fill="#2f9e44" text-anchor="middle" style="white-space: pre;" direction="ltr" dominant-baseline="text-before-edge">1.0</text></g><g mask="url(#mask-4GwnzyW_5fD4SD9eK1szm)" stroke-linecap="round"><g transform="translate(406.30414611572905 565.0685633274071) rotate(0 95.33755355461545 173.3760964282372)"><path d="M0.34 -1.07 C32.22 56.64, 158.57 289.43, 190.27 347.23 M-0.93 0.99 C30.84 58.85, 157.33 287.77, 189.11 345.35" stroke="#2f9e44" stroke-width="1" fill="none"></path></g><g transform="translate(406.30414611572905 565.0685633274071) rotate(0 95.33755355461545 173.3760964282372)"><path d="M170.27 328.92 C172.72 331.76, 179.38 335.85, 189.11 345.35 M170.27 328.92 C174.71 332.5, 179.27 335.99, 189.11 345.35" stroke="#2f9e44" stroke-width="1" fill="none"></path></g><g transform="translate(406.30414611572905 565.0685633274071) rotate(0 95.33755355461545 173.3760964282372)"><path d="M185.24 320.65 C184.51 325.33, 187.92 331.22, 189.11 345.35 M185.24 320.65 C186.57 325.86, 187.97 331.09, 189.11 345.35" stroke="#2f9e44" stroke-width="1" fill="none"></path></g></g><mask id="mask-4GwnzyW_5fD4SD9eK1szm"><rect x="0" y="0" fill="#fff" width="696.97925322496" height="1011.8207561838815"></rect><rect x="484.06357467034445" y="726.4446597556442" fill="#000" width="35.15625" height="24" opacity="1"></rect></mask><g transform="translate(484.06357467034456 726.4446597556444) rotate(0 16.908973758355785 11.703195552527802)"><text x="17.578125" y="0" font-family="Cascadia, Segoe UI Emoji" font-size="20px" fill="#2f9e44" text-anchor="middle" style="white-space: pre;" direction="ltr" dominant-baseline="text-before-edge">1.0</text></g><g mask="url(#mask-o16cg6zsbXNUrNtgqVaSM)" stroke-linecap="round"><g transform="translate(578.8647352879342 569.2765119083789) rotate(0 23.3355410646829 161.58205636913323)"><path d="M-0.96 0.9 C6.97 54.64, 39.44 268.96, 47.2 322.65 M0.73 0.33 C8.59 54.2, 38.66 269.93, 46.54 323.92" stroke="#2f9e44" stroke-width="1" fill="none"></path></g><g transform="translate(578.8647352879342 569.2765119083789) rotate(0 23.3355410646829 161.58205636913323)"><path d="M34.76 301.87 C39.44 308.73, 40.23 312.01, 46.54 323.92 M34.76 301.87 C37.59 307.74, 40.95 315.66, 46.54 323.92" stroke="#2f9e44" stroke-width="1" fill="none"></path></g><g transform="translate(578.8647352879342 569.2765119083789) rotate(0 23.3355410646829 161.58205636913323)"><path d="M51.69 299.46 C51.87 306.83, 48.14 310.75, 46.54 323.92 M51.69 299.46 C49.61 306.04, 48.05 314.66, 46.54 323.92" stroke="#2f9e44" stroke-width="1" fill="none"></path></g></g><mask id="mask-o16cg6zsbXNUrNtgqVaSM"><rect x="0" y="0" fill="#fff" width="725.5358174173" height="992.4406246466453"></rect><rect x="584.6221513526172" y="718.8585682775123" fill="#000" width="35.15625" height="24" opacity="1"></rect></mask><g transform="translate(584.6221513526172 718.8585682775122) rotate(0 17.363267116248664 12.543428143663334)"><text x="17.578125" y="0" font-family="Cascadia, Segoe UI Emoji" font-size="20px" fill="#2f9e44" text-anchor="middle" style="white-space: pre;" direction="ltr" dominant-baseline="text-before-edge">1.0</text></g></svg>